<svg width="29" height="28" viewBox="0 0 29 28" fill="none" xmlns="http://www.w3.org/2000/svg">
<path fill-rule="evenodd" clip-rule="evenodd" d="M13.4202 0.119266C14.6743 0.0964 16.0653 0.00924787 17.1139 0.277725C21.9382 1.5131 25.2854 3.89158 27.1242 8.04038C27.5901 9.09102 27.9352 10.2448 28.2484 11.5256C28.2663 11.8246 28.2842 12.1241 28.3021 12.4234C28.7548 14.4696 27.9197 17.6019 27.3384 18.9184C25.7607 22.4919 23.0052 24.9212 19.3086 26.4171C18.2728 26.8361 17.0873 26.8846 15.8825 27.1562C15.3296 27.1562 14.7763 27.1562 14.2231 27.1562C12.3334 27.1565 10.7893 26.7132 9.45872 26.1528C5.43312 24.458 2.89324 21.6743 1.48264 17.387C1.05586 16.0903 0.629996 13.2623 1.05423 11.5256C1.25899 10.6879 1.38026 9.80479 1.6968 9.04359C3.21284 5.39734 5.67524 2.67787 9.29805 1.12267C10.1105 0.77386 11.0255 0.568065 11.9212 0.330678C12.3612 0.21384 13.0546 0.346423 13.4202 0.119266ZM12.5637 11.3673C12.0285 11.3673 11.4931 11.3673 10.9577 11.3673C10.9577 12.2824 10.9577 13.1979 10.9577 14.1132C11.4931 14.1132 12.0285 14.1132 12.5637 14.1132C12.5637 16.7178 12.5637 19.3236 12.5637 21.9284C13.652 21.9284 14.7408 21.9284 15.8291 21.9284C15.8291 19.3236 15.8291 16.7178 15.8291 14.1132C16.5607 14.1132 17.2925 14.1132 18.0238 14.1132C18.0794 13.1995 18.2792 12.33 18.2916 11.3673C17.4709 11.3673 16.65 11.3673 15.8291 11.3673C15.8094 10.6744 15.6325 9.23203 16.1504 9.04359C16.5058 8.77421 17.7236 8.93036 18.2916 8.93798C18.2916 8.05804 18.2916 7.17769 18.2916 6.29764C17.7384 6.29764 17.1852 6.29764 16.6321 6.29764C12.9203 6.29764 12.5296 7.71625 12.5637 11.3673Z" fill="#FFF6DC"/>
<path fill-rule="evenodd" clip-rule="evenodd" d="M13.4202 0.119266C14.6743 0.0964 16.0653 0.00924787 17.1139 0.277725C21.9382 1.5131 25.2854 3.89158 27.1242 8.04038C27.5901 9.09102 27.9352 10.2448 28.2484 11.5256C28.2663 11.8246 28.2842 12.1241 28.3021 12.4234C28.7548 14.4696 27.9197 17.6019 27.3384 18.9184C25.7607 22.4919 23.0052 24.9212 19.3086 26.4171C18.2728 26.8361 17.0873 26.8846 15.8825 27.1562C15.3296 27.1562 14.7763 27.1562 14.2231 27.1562C12.3334 27.1565 10.7893 26.7132 9.45872 26.1528C5.43312 24.458 2.89324 21.6743 1.48264 17.387C1.05586 16.0903 0.629996 13.2623 1.05423 11.5256C1.25899 10.6879 1.38026 9.80479 1.6968 9.04359C3.21284 5.39734 5.67524 2.67787 9.29805 1.12267C10.1105 0.77386 11.0255 0.568065 11.9212 0.330678C12.3612 0.21384 13.0546 0.346423 13.4202 0.119266ZM12.5637 11.3673C12.0285 11.3673 11.4931 11.3673 10.9577 11.3673C10.9577 12.2824 10.9577 13.1979 10.9577 14.1132C11.4931 14.1132 12.0285 14.1132 12.5637 14.1132C12.5637 16.7178 12.5637 19.3236 12.5637 21.9284C13.652 21.9284 14.7408 21.9284 15.8291 21.9284C15.8291 19.3236 15.8291 16.7178 15.8291 14.1132C16.5607 14.1132 17.2925 14.1132 18.0238 14.1132C18.0794 13.1995 18.2792 12.33 18.2916 11.3673C17.4709 11.3673 16.65 11.3673 15.8291 11.3673C15.8094 10.6744 15.6325 9.23203 16.1504 9.04359C16.5058 8.77421 17.7236 8.93036 18.2916 8.93798C18.2916 8.05804 18.2916 7.17769 18.2916 6.29764C17.7384 6.29764 17.1852 6.29764 16.6321 6.29764C12.9203 6.29764 12.5296 7.71625 12.5637 11.3673Z" fill="#FFF6DC"/>
<path fill-rule="evenodd" clip-rule="evenodd" d="M13.4202 0.119266C14.6743 0.0964 16.0653 0.00924787 17.1139 0.277725C21.9382 1.5131 25.2854 3.89158 27.1242 8.04038C27.5901 9.09102 27.9352 10.2448 28.2484 11.5256C28.2663 11.8246 28.2842 12.1241 28.3021 12.4234C28.7548 14.4696 27.9197 17.6019 27.3384 18.9184C25.7607 22.4919 23.0052 24.9212 19.3086 26.4171C18.2728 26.8361 17.0873 26.8846 15.8825 27.1562C15.3296 27.1562 14.7763 27.1562 14.2231 27.1562C12.3334 27.1565 10.7893 26.7132 9.45872 26.1528C5.43312 24.458 2.89324 21.6743 1.48264 17.387C1.05586 16.0903 0.629996 13.2623 1.05423 11.5256C1.25899 10.6879 1.38026 9.80479 1.6968 9.04359C3.21284 5.39734 5.67524 2.67787 9.29805 1.12267C10.1105 0.77386 11.0255 0.568065 11.9212 0.330678C12.3612 0.21384 13.0546 0.346423 13.4202 0.119266ZM12.5637 11.3673C12.0285 11.3673 11.4931 11.3673 10.9577 11.3673C10.9577 12.2824 10.9577 13.1979 10.9577 14.1132C11.4931 14.1132 12.0285 14.1132 12.5637 14.1132C12.5637 16.7178 12.5637 19.3236 12.5637 21.9284C13.652 21.9284 14.7408 21.9284 15.8291 21.9284C15.8291 19.3236 15.8291 16.7178 15.8291 14.1132C16.5607 14.1132 17.2925 14.1132 18.0238 14.1132C18.0794 13.1995 18.2792 12.33 18.2916 11.3673C17.4709 11.3673 16.65 11.3673 15.8291 11.3673C15.8094 10.6744 15.6325 9.23203 16.1504 9.04359C16.5058 8.77421 17.7236 8.93036 18.2916 8.93798C18.2916 8.05804 18.2916 7.17769 18.2916 6.29764C17.7384 6.29764 17.1852 6.29764 16.6321 6.29764C12.9203 6.29764 12.5296 7.71625 12.5637 11.3673Z" stroke="#7C5334"/>
<path fill-rule="evenodd" clip-rule="evenodd" d="M13.4202 0.119266C14.6743 0.0964 16.0653 0.00924787 17.1139 0.277725C21.9382 1.5131 25.2854 3.89158 27.1242 8.04038C27.5901 9.09102 27.9352 10.2448 28.2484 11.5256C28.2663 11.8246 28.2842 12.1241 28.3021 12.4234C28.7548 14.4696 27.9197 17.6019 27.3384 18.9184C25.7607 22.4919 23.0052 24.9212 19.3086 26.4171C18.2728 26.8361 17.0873 26.8846 15.8825 27.1562C15.3296 27.1562 14.7763 27.1562 14.2231 27.1562C12.3334 27.1565 10.7893 26.7132 9.45872 26.1528C5.43312 24.458 2.89324 21.6743 1.48264 17.387C1.05586 16.0903 0.629996 13.2623 1.05423 11.5256C1.25899 10.6879 1.38026 9.80479 1.6968 9.04359C3.21284 5.39734 5.67524 2.67787 9.29805 1.12267C10.1105 0.77386 11.0255 0.568065 11.9212 0.330678C12.3612 0.21384 13.0546 0.346423 13.4202 0.119266ZM12.5637 11.3673C12.0285 11.3673 11.4931 11.3673 10.9577 11.3673C10.9577 12.2824 10.9577 13.1979 10.9577 14.1132C11.4931 14.1132 12.0285 14.1132 12.5637 14.1132C12.5637 16.7178 12.5637 19.3236 12.5637 21.9284C13.652 21.9284 14.7408 21.9284 15.8291 21.9284C15.8291 19.3236 15.8291 16.7178 15.8291 14.1132C16.5607 14.1132 17.2925 14.1132 18.0238 14.1132C18.0794 13.1995 18.2792 12.33 18.2916 11.3673C17.4709 11.3673 16.65 11.3673 15.8291 11.3673C15.8094 10.6744 15.6325 9.23203 16.1504 9.04359C16.5058 8.77421 17.7236 8.93036 18.2916 8.93798C18.2916 8.05804 18.2916 7.17769 18.2916 6.29764C17.7384 6.29764 17.1852 6.29764 16.6321 6.29764C12.9203 6.29764 12.5296 7.71625 12.5637 11.3673Z" stroke="#7C5334"/>
</svg>
