<svg width="28" height="28" viewBox="0 0 28 28" fill="none" xmlns="http://www.w3.org/2000/svg">
<path fill-rule="evenodd" clip-rule="evenodd" d="M12.6618 0.122454C13.7693 0.10189 15.0488 -0.00243184 16.0073 0.227979C16.9114 0.44525 17.846 0.579464 18.663 0.914398C22.1781 2.35545 24.8059 4.7065 26.3103 8.14803C26.9641 9.64384 27.4781 11.2494 27.4786 13.4281C27.4789 13.8901 27.5122 14.4782 27.4255 14.8538C27.3902 15.2586 27.3548 15.6634 27.3194 16.0681C27.0233 17.2077 26.7499 18.2925 26.3103 19.2889C24.8539 22.5898 22.0571 24.9749 18.663 26.3642C17.5801 26.8075 16.3733 26.868 15.1045 27.1562C14.5558 27.1562 14.0071 27.1562 13.4583 27.1562C11.5779 27.1565 10.0529 26.7144 8.73168 26.1532C4.72703 24.4514 2.22276 21.6886 0.818649 17.3881C0.398425 16.1008 -0.0309912 13.2527 0.39398 11.5274C0.615305 10.6285 0.747534 9.70052 1.08422 8.88721C2.55955 5.32531 5.04877 2.64313 8.57248 1.12555C9.37596 0.779381 10.2839 0.562412 11.1747 0.333605C11.6099 0.22166 12.3014 0.34805 12.6618 0.122454ZM13.5115 5.87772C13.0668 6.14404 11.2067 5.78423 10.5375 5.93028C10.0949 6.0008 9.65234 6.07122 9.20979 6.14163C7.96336 6.54187 6.98816 7.36571 6.50126 8.51767C6.07013 9.53762 6.12963 10.9925 6.12953 12.4248C6.12953 12.8263 6.09145 13.46 6.12953 13.6921C6.12953 14.0615 6.12953 14.4313 6.12953 14.801C6.12953 16.012 6.03175 17.3318 6.34186 18.2857C6.74481 19.5249 7.57283 20.4946 8.73168 20.9787C10.2086 21.5953 12.8749 21.3533 14.7329 21.3481C16.2821 21.3439 17.9279 21.4434 19.0346 20.9787C21.8779 19.7844 21.6368 16.9581 21.6368 13.0056C21.6368 11.4076 21.7505 9.661 21.2652 8.51767C20.1182 5.81633 17.3067 5.86618 13.5115 5.87772ZM11.1747 7.25056C13.6929 7.23049 18.4597 6.83317 19.5126 8.20079C20.452 9.42126 20.3091 11.6774 20.3091 13.8506C20.3091 14.6404 20.4071 15.6368 20.256 16.3321C20.256 16.6313 20.256 16.9304 20.256 17.2297C20.1647 17.6349 20.1019 18.0865 19.9374 18.4441C19.735 18.8845 19.2322 19.3651 18.8222 19.6059C17.864 20.1683 16.0401 20.0282 14.5736 20.0282C12.5502 20.0282 9.91659 20.283 8.67855 19.4474C7.07352 18.3637 7.45717 15.026 7.45717 12.3722C7.45717 11.2411 7.37878 9.94869 7.72274 9.09856C8.10327 8.15756 8.83987 7.62391 9.90003 7.35588C10.2553 7.26641 10.8805 7.4274 11.1747 7.25056ZM17.9724 8.57033C17.8796 8.63824 17.7481 8.65941 17.6007 8.67596C17.3815 8.98621 17.1596 9.09665 17.1227 9.62649C17.3899 9.99764 17.8436 10.801 18.5035 10.2601C18.7139 10.1306 18.7661 9.9537 18.9285 9.78478C18.9501 9.53691 19.0093 9.38424 18.8752 9.20409C18.7845 8.86915 18.5577 8.82331 18.3442 8.62329C18.2203 8.60564 18.0964 8.58798 17.9724 8.57033ZM13.4583 9.67925C13.1649 9.8578 12.7106 9.81106 12.3961 9.94327C11.4143 10.3562 10.5774 11.1816 10.1657 12.1609C9.16797 14.5339 10.7517 16.4621 12.2899 17.2297C12.725 17.4469 13.5497 17.7691 14.3081 17.5992C15.9146 17.2397 17.0259 16.4839 17.6007 15.1177C18.5794 12.7913 16.9596 10.6045 15.3701 9.94327C14.8346 9.72048 14.2137 9.67133 13.4583 9.67925ZM13.352 11.0521C14.8129 11.0235 15.6309 11.4037 16.1668 12.2665C17.2573 14.0225 15.8641 15.8755 14.4142 16.2267C12.5323 16.6824 10.7396 14.7279 11.3339 12.9001C11.5682 12.1801 12.0736 11.5797 12.7148 11.2632C12.9273 11.1927 13.1398 11.1225 13.352 11.0521Z" fill="#FFF6DC"/>
<path fill-rule="evenodd" clip-rule="evenodd" d="M12.6618 0.122454C13.7693 0.10189 15.0488 -0.00243184 16.0073 0.227979C16.9114 0.44525 17.846 0.579464 18.663 0.914398C22.1781 2.35545 24.8059 4.7065 26.3103 8.14803C26.9641 9.64384 27.4781 11.2494 27.4786 13.4281C27.4789 13.8901 27.5122 14.4782 27.4255 14.8538C27.3902 15.2586 27.3548 15.6634 27.3194 16.0681C27.0233 17.2077 26.7499 18.2925 26.3103 19.2889C24.8539 22.5898 22.0571 24.9749 18.663 26.3642C17.5801 26.8075 16.3733 26.868 15.1045 27.1562C14.5558 27.1562 14.0071 27.1562 13.4583 27.1562C11.5779 27.1565 10.0529 26.7144 8.73168 26.1532C4.72703 24.4514 2.22276 21.6886 0.818649 17.3881C0.398425 16.1008 -0.0309912 13.2527 0.39398 11.5274C0.615305 10.6285 0.747534 9.70052 1.08422 8.88721C2.55955 5.32531 5.04877 2.64313 8.57248 1.12555C9.37596 0.779381 10.2839 0.562412 11.1747 0.333605C11.6099 0.22166 12.3014 0.34805 12.6618 0.122454ZM13.5115 5.87772C13.0668 6.14404 11.2067 5.78423 10.5375 5.93028C10.0949 6.0008 9.65234 6.07122 9.20979 6.14163C7.96336 6.54187 6.98816 7.36571 6.50126 8.51767C6.07013 9.53762 6.12963 10.9925 6.12953 12.4248C6.12953 12.8263 6.09145 13.46 6.12953 13.6921C6.12953 14.0615 6.12953 14.4313 6.12953 14.801C6.12953 16.012 6.03175 17.3318 6.34186 18.2857C6.74481 19.5249 7.57283 20.4946 8.73168 20.9787C10.2086 21.5953 12.8749 21.3533 14.7329 21.3481C16.2821 21.3439 17.9279 21.4434 19.0346 20.9787C21.8779 19.7844 21.6368 16.9581 21.6368 13.0056C21.6368 11.4076 21.7505 9.661 21.2652 8.51767C20.1182 5.81633 17.3067 5.86618 13.5115 5.87772ZM11.1747 7.25056C13.6929 7.23049 18.4597 6.83317 19.5126 8.20079C20.452 9.42126 20.3091 11.6774 20.3091 13.8506C20.3091 14.6404 20.4071 15.6368 20.256 16.3321C20.256 16.6313 20.256 16.9304 20.256 17.2297C20.1647 17.6349 20.1019 18.0865 19.9374 18.4441C19.735 18.8845 19.2322 19.3651 18.8222 19.6059C17.864 20.1683 16.0401 20.0282 14.5736 20.0282C12.5502 20.0282 9.91659 20.283 8.67855 19.4474C7.07352 18.3637 7.45717 15.026 7.45717 12.3722C7.45717 11.2411 7.37878 9.94869 7.72274 9.09856C8.10327 8.15756 8.83987 7.62391 9.90003 7.35588C10.2553 7.26641 10.8805 7.4274 11.1747 7.25056ZM17.9724 8.57033C17.8796 8.63824 17.7481 8.65941 17.6007 8.67596C17.3815 8.98621 17.1596 9.09665 17.1227 9.62649C17.3899 9.99764 17.8436 10.801 18.5035 10.2601C18.7139 10.1306 18.7661 9.9537 18.9285 9.78478C18.9501 9.53691 19.0093 9.38424 18.8752 9.20409C18.7845 8.86915 18.5577 8.82331 18.3442 8.62329C18.2203 8.60564 18.0964 8.58798 17.9724 8.57033ZM13.4583 9.67925C13.1649 9.8578 12.7106 9.81106 12.3961 9.94327C11.4143 10.3562 10.5774 11.1816 10.1657 12.1609C9.16797 14.5339 10.7517 16.4621 12.2899 17.2297C12.725 17.4469 13.5497 17.7691 14.3081 17.5992C15.9146 17.2397 17.0259 16.4839 17.6007 15.1177C18.5794 12.7913 16.9596 10.6045 15.3701 9.94327C14.8346 9.72048 14.2137 9.67133 13.4583 9.67925ZM13.352 11.0521C14.8129 11.0235 15.6309 11.4037 16.1668 12.2665C17.2573 14.0225 15.8641 15.8755 14.4142 16.2267C12.5323 16.6824 10.7396 14.7279 11.3339 12.9001C11.5682 12.1801 12.0736 11.5797 12.7148 11.2632C12.9273 11.1927 13.1398 11.1225 13.352 11.0521Z" fill="#FFF6DC"/>
<path fill-rule="evenodd" clip-rule="evenodd" d="M12.6618 0.122454C13.7693 0.10189 15.0488 -0.00243184 16.0073 0.227979C16.9114 0.44525 17.846 0.579464 18.663 0.914398C22.1781 2.35545 24.8059 4.7065 26.3103 8.14803C26.9641 9.64384 27.4781 11.2494 27.4786 13.4281C27.4789 13.8901 27.5122 14.4782 27.4255 14.8538C27.3902 15.2586 27.3548 15.6634 27.3194 16.0681C27.0233 17.2077 26.7499 18.2925 26.3103 19.2889C24.8539 22.5898 22.0571 24.9749 18.663 26.3642C17.5801 26.8075 16.3733 26.868 15.1045 27.1562C14.5558 27.1562 14.0071 27.1562 13.4583 27.1562C11.5779 27.1565 10.0529 26.7144 8.73168 26.1532C4.72703 24.4514 2.22276 21.6886 0.818649 17.3881C0.398425 16.1008 -0.0309912 13.2527 0.39398 11.5274C0.615305 10.6285 0.747534 9.70052 1.08422 8.88721C2.55955 5.32531 5.04877 2.64313 8.57248 1.12555C9.37596 0.779381 10.2839 0.562412 11.1747 0.333605C11.6099 0.22166 12.3014 0.34805 12.6618 0.122454ZM13.5115 5.87772C13.0668 6.14404 11.2067 5.78423 10.5375 5.93028C10.0949 6.0008 9.65234 6.07122 9.20979 6.14163C7.96336 6.54187 6.98816 7.36571 6.50126 8.51767C6.07013 9.53762 6.12963 10.9925 6.12953 12.4248C6.12953 12.8263 6.09145 13.46 6.12953 13.6921C6.12953 14.0615 6.12953 14.4313 6.12953 14.801C6.12953 16.012 6.03175 17.3318 6.34186 18.2857C6.74481 19.5249 7.57283 20.4946 8.73168 20.9787C10.2086 21.5953 12.8749 21.3533 14.7329 21.3481C16.2821 21.3439 17.9279 21.4434 19.0346 20.9787C21.8779 19.7844 21.6368 16.9581 21.6368 13.0056C21.6368 11.4076 21.7505 9.661 21.2652 8.51767C20.1182 5.81633 17.3067 5.86618 13.5115 5.87772ZM11.1747 7.25056C13.6929 7.23049 18.4597 6.83317 19.5126 8.20079C20.452 9.42126 20.3091 11.6774 20.3091 13.8506C20.3091 14.6404 20.4071 15.6368 20.256 16.3321C20.256 16.6313 20.256 16.9304 20.256 17.2297C20.1647 17.6349 20.1019 18.0865 19.9374 18.4441C19.735 18.8845 19.2322 19.3651 18.8222 19.6059C17.864 20.1683 16.0401 20.0282 14.5736 20.0282C12.5502 20.0282 9.91659 20.283 8.67855 19.4474C7.07352 18.3637 7.45717 15.026 7.45717 12.3722C7.45717 11.2411 7.37878 9.94869 7.72274 9.09856C8.10327 8.15756 8.83987 7.62391 9.90003 7.35588C10.2553 7.26641 10.8805 7.4274 11.1747 7.25056ZM17.9724 8.57033C17.8796 8.63824 17.7481 8.65941 17.6007 8.67596C17.3815 8.98621 17.1596 9.09665 17.1227 9.62649C17.3899 9.99764 17.8436 10.801 18.5035 10.2601C18.7139 10.1306 18.7661 9.9537 18.9285 9.78478C18.9501 9.53691 19.0093 9.38424 18.8752 9.20409C18.7845 8.86915 18.5577 8.82331 18.3442 8.62329C18.2203 8.60564 18.0964 8.58798 17.9724 8.57033ZM13.4583 9.67925C13.1649 9.8578 12.7106 9.81106 12.3961 9.94327C11.4143 10.3562 10.5774 11.1816 10.1657 12.1609C9.16797 14.5339 10.7517 16.4621 12.2899 17.2297C12.725 17.4469 13.5497 17.7691 14.3081 17.5992C15.9146 17.2397 17.0259 16.4839 17.6007 15.1177C18.5794 12.7913 16.9596 10.6045 15.3701 9.94327C14.8346 9.72048 14.2137 9.67133 13.4583 9.67925ZM13.352 11.0521C14.8129 11.0235 15.6309 11.4037 16.1668 12.2665C17.2573 14.0225 15.8641 15.8755 14.4142 16.2267C12.5323 16.6824 10.7396 14.7279 11.3339 12.9001C11.5682 12.1801 12.0736 11.5797 12.7148 11.2632C12.9273 11.1927 13.1398 11.1225 13.352 11.0521Z" fill="#FFF6DC"/>
<path fill-rule="evenodd" clip-rule="evenodd" d="M12.6618 0.122454C13.7693 0.10189 15.0488 -0.00243184 16.0073 0.227979C16.9114 0.44525 17.846 0.579464 18.663 0.914398C22.1781 2.35545 24.8059 4.7065 26.3103 8.14803C26.9641 9.64384 27.4781 11.2494 27.4786 13.4281C27.4789 13.8901 27.5122 14.4782 27.4255 14.8538C27.3902 15.2586 27.3548 15.6634 27.3194 16.0681C27.0233 17.2077 26.7499 18.2925 26.3103 19.2889C24.8539 22.5898 22.0571 24.9749 18.663 26.3642C17.5801 26.8075 16.3733 26.868 15.1045 27.1562C14.5558 27.1562 14.0071 27.1562 13.4583 27.1562C11.5779 27.1565 10.0529 26.7144 8.73168 26.1532C4.72703 24.4514 2.22276 21.6886 0.818649 17.3881C0.398425 16.1008 -0.0309912 13.2527 0.39398 11.5274C0.615305 10.6285 0.747534 9.70052 1.08422 8.88721C2.55955 5.32531 5.04877 2.64313 8.57248 1.12555C9.37596 0.779381 10.2839 0.562412 11.1747 0.333605C11.6099 0.22166 12.3014 0.34805 12.6618 0.122454ZM13.5115 5.87772C13.0668 6.14404 11.2067 5.78423 10.5375 5.93028C10.0949 6.0008 9.65234 6.07122 9.20979 6.14163C7.96336 6.54187 6.98816 7.36571 6.50126 8.51767C6.07013 9.53762 6.12963 10.9925 6.12953 12.4248C6.12953 12.8263 6.09145 13.46 6.12953 13.6921C6.12953 14.0615 6.12953 14.4313 6.12953 14.801C6.12953 16.012 6.03175 17.3318 6.34186 18.2857C6.74481 19.5249 7.57283 20.4946 8.73168 20.9787C10.2086 21.5953 12.8749 21.3533 14.7329 21.3481C16.2821 21.3439 17.9279 21.4434 19.0346 20.9787C21.8779 19.7844 21.6368 16.9581 21.6368 13.0056C21.6368 11.4076 21.7505 9.661 21.2652 8.51767C20.1182 5.81633 17.3067 5.86618 13.5115 5.87772ZM11.1747 7.25056C13.6929 7.23049 18.4597 6.83317 19.5126 8.20079C20.452 9.42126 20.3091 11.6774 20.3091 13.8506C20.3091 14.6404 20.4071 15.6368 20.256 16.3321C20.256 16.6313 20.256 16.9304 20.256 17.2297C20.1647 17.6349 20.1019 18.0865 19.9374 18.4441C19.735 18.8845 19.2322 19.3651 18.8222 19.6059C17.864 20.1683 16.0401 20.0282 14.5736 20.0282C12.5502 20.0282 9.91659 20.283 8.67855 19.4474C7.07352 18.3637 7.45717 15.026 7.45717 12.3722C7.45717 11.2411 7.37878 9.94869 7.72274 9.09856C8.10327 8.15756 8.83987 7.62391 9.90003 7.35588C10.2553 7.26641 10.8805 7.4274 11.1747 7.25056ZM17.9724 8.57033C17.8796 8.63824 17.7481 8.65941 17.6007 8.67596C17.3815 8.98621 17.1596 9.09665 17.1227 9.62649C17.3899 9.99764 17.8436 10.801 18.5035 10.2601C18.7139 10.1306 18.7661 9.9537 18.9285 9.78478C18.9501 9.53691 19.0093 9.38424 18.8752 9.20409C18.7845 8.86915 18.5577 8.82331 18.3442 8.62329C18.2203 8.60564 18.0964 8.58798 17.9724 8.57033ZM13.4583 9.67925C13.1649 9.8578 12.7106 9.81106 12.3961 9.94327C11.4143 10.3562 10.5774 11.1816 10.1657 12.1609C9.16797 14.5339 10.7517 16.4621 12.2899 17.2297C12.725 17.4469 13.5497 17.7691 14.3081 17.5992C15.9146 17.2397 17.0259 16.4839 17.6007 15.1177C18.5794 12.7913 16.9596 10.6045 15.3701 9.94327C14.8346 9.72048 14.2137 9.67133 13.4583 9.67925ZM13.352 11.0521C14.8129 11.0235 15.6309 11.4037 16.1668 12.2665C17.2573 14.0225 15.8641 15.8755 14.4142 16.2267C12.5323 16.6824 10.7396 14.7279 11.3339 12.9001C11.5682 12.1801 12.0736 11.5797 12.7148 11.2632C12.9273 11.1927 13.1398 11.1225 13.352 11.0521Z" fill="#FFF6DC"/>
<path fill-rule="evenodd" clip-rule="evenodd" d="M12.6618 0.122454C13.7693 0.10189 15.0488 -0.00243184 16.0073 0.227979C16.9114 0.44525 17.846 0.579464 18.663 0.914398C22.1781 2.35545 24.8059 4.7065 26.3103 8.14803C26.9641 9.64384 27.4781 11.2494 27.4786 13.4281C27.4789 13.8901 27.5122 14.4782 27.4255 14.8538C27.3902 15.2586 27.3548 15.6634 27.3194 16.0681C27.0233 17.2077 26.7499 18.2925 26.3103 19.2889C24.8539 22.5898 22.0571 24.9749 18.663 26.3642C17.5801 26.8075 16.3733 26.868 15.1045 27.1562C14.5558 27.1562 14.0071 27.1562 13.4583 27.1562C11.5779 27.1565 10.0529 26.7144 8.73168 26.1532C4.72703 24.4514 2.22276 21.6886 0.818649 17.3881C0.398425 16.1008 -0.0309912 13.2527 0.39398 11.5274C0.615305 10.6285 0.747534 9.70052 1.08422 8.88721C2.55955 5.32531 5.04877 2.64313 8.57248 1.12555C9.37596 0.779381 10.2839 0.562412 11.1747 0.333605C11.6099 0.22166 12.3014 0.34805 12.6618 0.122454ZM13.5115 5.87772C13.0668 6.14404 11.2067 5.78423 10.5375 5.93028C10.0949 6.0008 9.65234 6.07122 9.20979 6.14163C7.96336 6.54187 6.98816 7.36571 6.50126 8.51767C6.07013 9.53762 6.12963 10.9925 6.12953 12.4248C6.12953 12.8263 6.09145 13.46 6.12953 13.6921C6.12953 14.0615 6.12953 14.4313 6.12953 14.801C6.12953 16.012 6.03175 17.3318 6.34186 18.2857C6.74481 19.5249 7.57283 20.4946 8.73168 20.9787C10.2086 21.5953 12.8749 21.3533 14.7329 21.3481C16.2821 21.3439 17.9279 21.4434 19.0346 20.9787C21.8779 19.7844 21.6368 16.9581 21.6368 13.0056C21.6368 11.4076 21.7505 9.661 21.2652 8.51767C20.1182 5.81633 17.3067 5.86618 13.5115 5.87772ZM11.1747 7.25056C13.6929 7.23049 18.4597 6.83317 19.5126 8.20079C20.452 9.42126 20.3091 11.6774 20.3091 13.8506C20.3091 14.6404 20.4071 15.6368 20.256 16.3321C20.256 16.6313 20.256 16.9304 20.256 17.2297C20.1647 17.6349 20.1019 18.0865 19.9374 18.4441C19.735 18.8845 19.2322 19.3651 18.8222 19.6059C17.864 20.1683 16.0401 20.0282 14.5736 20.0282C12.5502 20.0282 9.91659 20.283 8.67855 19.4474C7.07352 18.3637 7.45717 15.026 7.45717 12.3722C7.45717 11.2411 7.37878 9.94869 7.72274 9.09856C8.10327 8.15756 8.83987 7.62391 9.90003 7.35588C10.2553 7.26641 10.8805 7.4274 11.1747 7.25056ZM17.9724 8.57033C17.8796 8.63824 17.7481 8.65941 17.6007 8.67596C17.3815 8.98621 17.1596 9.09665 17.1227 9.62649C17.3899 9.99764 17.8436 10.801 18.5035 10.2601C18.7139 10.1306 18.7661 9.9537 18.9285 9.78478C18.9501 9.53691 19.0093 9.38424 18.8752 9.20409C18.7845 8.86915 18.5577 8.82331 18.3442 8.62329C18.2203 8.60564 18.0964 8.58798 17.9724 8.57033ZM13.4583 9.67925C13.1649 9.8578 12.7106 9.81106 12.3961 9.94327C11.4143 10.3562 10.5774 11.1816 10.1657 12.1609C9.16797 14.5339 10.7517 16.4621 12.2899 17.2297C12.725 17.4469 13.5497 17.7691 14.3081 17.5992C15.9146 17.2397 17.0259 16.4839 17.6007 15.1177C18.5794 12.7913 16.9596 10.6045 15.3701 9.94327C14.8346 9.72048 14.2137 9.67133 13.4583 9.67925ZM13.352 11.0521C14.8129 11.0235 15.6309 11.4037 16.1668 12.2665C17.2573 14.0225 15.8641 15.8755 14.4142 16.2267C12.5323 16.6824 10.7396 14.7279 11.3339 12.9001C11.5682 12.1801 12.0736 11.5797 12.7148 11.2632C12.9273 11.1927 13.1398 11.1225 13.352 11.0521Z" fill="#FFF6DC"/>
<path fill-rule="evenodd" clip-rule="evenodd" d="M12.6618 0.122454C13.7693 0.10189 15.0488 -0.00243184 16.0073 0.227979C16.9114 0.44525 17.846 0.579464 18.663 0.914398C22.1781 2.35545 24.8059 4.7065 26.3103 8.14803C26.9641 9.64384 27.4781 11.2494 27.4786 13.4281C27.4789 13.8901 27.5122 14.4782 27.4255 14.8538C27.3902 15.2586 27.3548 15.6634 27.3194 16.0681C27.0233 17.2077 26.7499 18.2925 26.3103 19.2889C24.8539 22.5898 22.0571 24.9749 18.663 26.3642C17.5801 26.8075 16.3733 26.868 15.1045 27.1562C14.5558 27.1562 14.0071 27.1562 13.4583 27.1562C11.5779 27.1565 10.0529 26.7144 8.73168 26.1532C4.72703 24.4514 2.22276 21.6886 0.818649 17.3881C0.398425 16.1008 -0.0309912 13.2527 0.39398 11.5274C0.615305 10.6285 0.747534 9.70052 1.08422 8.88721C2.55955 5.32531 5.04877 2.64313 8.57248 1.12555C9.37596 0.779381 10.2839 0.562412 11.1747 0.333605C11.6099 0.22166 12.3014 0.34805 12.6618 0.122454ZM13.5115 5.87772C13.0668 6.14404 11.2067 5.78423 10.5375 5.93028C10.0949 6.0008 9.65234 6.07122 9.20979 6.14163C7.96336 6.54187 6.98816 7.36571 6.50126 8.51767C6.07013 9.53762 6.12963 10.9925 6.12953 12.4248C6.12953 12.8263 6.09145 13.46 6.12953 13.6921C6.12953 14.0615 6.12953 14.4313 6.12953 14.801C6.12953 16.012 6.03175 17.3318 6.34186 18.2857C6.74481 19.5249 7.57283 20.4946 8.73168 20.9787C10.2086 21.5953 12.8749 21.3533 14.7329 21.3481C16.2821 21.3439 17.9279 21.4434 19.0346 20.9787C21.8779 19.7844 21.6368 16.9581 21.6368 13.0056C21.6368 11.4076 21.7505 9.661 21.2652 8.51767C20.1182 5.81633 17.3067 5.86618 13.5115 5.87772ZM11.1747 7.25056C13.6929 7.23049 18.4597 6.83317 19.5126 8.20079C20.452 9.42126 20.3091 11.6774 20.3091 13.8506C20.3091 14.6404 20.4071 15.6368 20.256 16.3321C20.256 16.6313 20.256 16.9304 20.256 17.2297C20.1647 17.6349 20.1019 18.0865 19.9374 18.4441C19.735 18.8845 19.2322 19.3651 18.8222 19.6059C17.864 20.1683 16.0401 20.0282 14.5736 20.0282C12.5502 20.0282 9.91659 20.283 8.67855 19.4474C7.07352 18.3637 7.45717 15.026 7.45717 12.3722C7.45717 11.2411 7.37878 9.94869 7.72274 9.09856C8.10327 8.15756 8.83987 7.62391 9.90003 7.35588C10.2553 7.26641 10.8805 7.4274 11.1747 7.25056ZM17.9724 8.57033C17.8796 8.63824 17.7481 8.65941 17.6007 8.67596C17.3815 8.98621 17.1596 9.09665 17.1227 9.62649C17.3899 9.99764 17.8436 10.801 18.5035 10.2601C18.7139 10.1306 18.7661 9.9537 18.9285 9.78478C18.9501 9.53691 19.0093 9.38424 18.8752 9.20409C18.7845 8.86915 18.5577 8.82331 18.3442 8.62329C18.2203 8.60564 18.0964 8.58798 17.9724 8.57033ZM13.4583 9.67925C13.1649 9.8578 12.7106 9.81106 12.3961 9.94327C11.4143 10.3562 10.5774 11.1816 10.1657 12.1609C9.16797 14.5339 10.7517 16.4621 12.2899 17.2297C12.725 17.4469 13.5497 17.7691 14.3081 17.5992C15.9146 17.2397 17.0259 16.4839 17.6007 15.1177C18.5794 12.7913 16.9596 10.6045 15.3701 9.94327C14.8346 9.72048 14.2137 9.67133 13.4583 9.67925ZM13.352 11.0521C14.8129 11.0235 15.6309 11.4037 16.1668 12.2665C17.2573 14.0225 15.8641 15.8755 14.4142 16.2267C12.5323 16.6824 10.7396 14.7279 11.3339 12.9001C11.5682 12.1801 12.0736 11.5797 12.7148 11.2632C12.9273 11.1927 13.1398 11.1225 13.352 11.0521Z" fill="#FFF6DC"/>
<path fill-rule="evenodd" clip-rule="evenodd" d="M12.6618 0.122454C13.7693 0.10189 15.0488 -0.00243184 16.0073 0.227979C16.9114 0.44525 17.846 0.579464 18.663 0.914398C22.1781 2.35545 24.8059 4.7065 26.3103 8.14803C26.9641 9.64384 27.4781 11.2494 27.4786 13.4281C27.4789 13.8901 27.5122 14.4782 27.4255 14.8538C27.3902 15.2586 27.3548 15.6634 27.3194 16.0681C27.0233 17.2077 26.7499 18.2925 26.3103 19.2889C24.8539 22.5898 22.0571 24.9749 18.663 26.3642C17.5801 26.8075 16.3733 26.868 15.1045 27.1562C14.5558 27.1562 14.0071 27.1562 13.4583 27.1562C11.5779 27.1565 10.0529 26.7144 8.73168 26.1532C4.72703 24.4514 2.22276 21.6886 0.818649 17.3881C0.398425 16.1008 -0.0309912 13.2527 0.39398 11.5274C0.615305 10.6285 0.747534 9.70052 1.08422 8.88721C2.55955 5.32531 5.04877 2.64313 8.57248 1.12555C9.37596 0.779381 10.2839 0.562412 11.1747 0.333605C11.6099 0.22166 12.3014 0.34805 12.6618 0.122454ZM13.5115 5.87772C13.0668 6.14404 11.2067 5.78423 10.5375 5.93028C10.0949 6.0008 9.65234 6.07122 9.20979 6.14163C7.96336 6.54187 6.98816 7.36571 6.50126 8.51767C6.07013 9.53762 6.12963 10.9925 6.12953 12.4248C6.12953 12.8263 6.09145 13.46 6.12953 13.6921C6.12953 14.0615 6.12953 14.4313 6.12953 14.801C6.12953 16.012 6.03175 17.3318 6.34186 18.2857C6.74481 19.5249 7.57283 20.4946 8.73168 20.9787C10.2086 21.5953 12.8749 21.3533 14.7329 21.3481C16.2821 21.3439 17.9279 21.4434 19.0346 20.9787C21.8779 19.7844 21.6368 16.9581 21.6368 13.0056C21.6368 11.4076 21.7505 9.661 21.2652 8.51767C20.1182 5.81633 17.3067 5.86618 13.5115 5.87772ZM11.1747 7.25056C13.6929 7.23049 18.4597 6.83317 19.5126 8.20079C20.452 9.42126 20.3091 11.6774 20.3091 13.8506C20.3091 14.6404 20.4071 15.6368 20.256 16.3321C20.256 16.6313 20.256 16.9304 20.256 17.2297C20.1647 17.6349 20.1019 18.0865 19.9374 18.4441C19.735 18.8845 19.2322 19.3651 18.8222 19.6059C17.864 20.1683 16.0401 20.0282 14.5736 20.0282C12.5502 20.0282 9.91659 20.283 8.67855 19.4474C7.07352 18.3637 7.45717 15.026 7.45717 12.3722C7.45717 11.2411 7.37878 9.94869 7.72274 9.09856C8.10327 8.15756 8.83987 7.62391 9.90003 7.35588C10.2553 7.26641 10.8805 7.4274 11.1747 7.25056ZM17.9724 8.57033C17.8796 8.63824 17.7481 8.65941 17.6007 8.67596C17.3815 8.98621 17.1596 9.09665 17.1227 9.62649C17.3899 9.99764 17.8436 10.801 18.5035 10.2601C18.7139 10.1306 18.7661 9.9537 18.9285 9.78478C18.9501 9.53691 19.0093 9.38424 18.8752 9.20409C18.7845 8.86915 18.5577 8.82331 18.3442 8.62329C18.2203 8.60564 18.0964 8.58798 17.9724 8.57033ZM13.4583 9.67925C13.1649 9.8578 12.7106 9.81106 12.3961 9.94327C11.4143 10.3562 10.5774 11.1816 10.1657 12.1609C9.16797 14.5339 10.7517 16.4621 12.2899 17.2297C12.725 17.4469 13.5497 17.7691 14.3081 17.5992C15.9146 17.2397 17.0259 16.4839 17.6007 15.1177C18.5794 12.7913 16.9596 10.6045 15.3701 9.94327C14.8346 9.72048 14.2137 9.67133 13.4583 9.67925ZM13.352 11.0521C14.8129 11.0235 15.6309 11.4037 16.1668 12.2665C17.2573 14.0225 15.8641 15.8755 14.4142 16.2267C12.5323 16.6824 10.7396 14.7279 11.3339 12.9001C11.5682 12.1801 12.0736 11.5797 12.7148 11.2632C12.9273 11.1927 13.1398 11.1225 13.352 11.0521Z" stroke="#7C5334"/>
<path fill-rule="evenodd" clip-rule="evenodd" d="M12.6618 0.122454C13.7693 0.10189 15.0488 -0.00243184 16.0073 0.227979C16.9114 0.44525 17.846 0.579464 18.663 0.914398C22.1781 2.35545 24.8059 4.7065 26.3103 8.14803C26.9641 9.64384 27.4781 11.2494 27.4786 13.4281C27.4789 13.8901 27.5122 14.4782 27.4255 14.8538C27.3902 15.2586 27.3548 15.6634 27.3194 16.0681C27.0233 17.2077 26.7499 18.2925 26.3103 19.2889C24.8539 22.5898 22.0571 24.9749 18.663 26.3642C17.5801 26.8075 16.3733 26.868 15.1045 27.1562C14.5558 27.1562 14.0071 27.1562 13.4583 27.1562C11.5779 27.1565 10.0529 26.7144 8.73168 26.1532C4.72703 24.4514 2.22276 21.6886 0.818649 17.3881C0.398425 16.1008 -0.0309912 13.2527 0.39398 11.5274C0.615305 10.6285 0.747534 9.70052 1.08422 8.88721C2.55955 5.32531 5.04877 2.64313 8.57248 1.12555C9.37596 0.779381 10.2839 0.562412 11.1747 0.333605C11.6099 0.22166 12.3014 0.34805 12.6618 0.122454ZM13.5115 5.87772C13.0668 6.14404 11.2067 5.78423 10.5375 5.93028C10.0949 6.0008 9.65234 6.07122 9.20979 6.14163C7.96336 6.54187 6.98816 7.36571 6.50126 8.51767C6.07013 9.53762 6.12963 10.9925 6.12953 12.4248C6.12953 12.8263 6.09145 13.46 6.12953 13.6921C6.12953 14.0615 6.12953 14.4313 6.12953 14.801C6.12953 16.012 6.03175 17.3318 6.34186 18.2857C6.74481 19.5249 7.57283 20.4946 8.73168 20.9787C10.2086 21.5953 12.8749 21.3533 14.7329 21.3481C16.2821 21.3439 17.9279 21.4434 19.0346 20.9787C21.8779 19.7844 21.6368 16.9581 21.6368 13.0056C21.6368 11.4076 21.7505 9.661 21.2652 8.51767C20.1182 5.81633 17.3067 5.86618 13.5115 5.87772ZM11.1747 7.25056C13.6929 7.23049 18.4597 6.83317 19.5126 8.20079C20.452 9.42126 20.3091 11.6774 20.3091 13.8506C20.3091 14.6404 20.4071 15.6368 20.256 16.3321C20.256 16.6313 20.256 16.9304 20.256 17.2297C20.1647 17.6349 20.1019 18.0865 19.9374 18.4441C19.735 18.8845 19.2322 19.3651 18.8222 19.6059C17.864 20.1683 16.0401 20.0282 14.5736 20.0282C12.5502 20.0282 9.91659 20.283 8.67855 19.4474C7.07352 18.3637 7.45717 15.026 7.45717 12.3722C7.45717 11.2411 7.37878 9.94869 7.72274 9.09856C8.10327 8.15756 8.83987 7.62391 9.90003 7.35588C10.2553 7.26641 10.8805 7.4274 11.1747 7.25056ZM17.9724 8.57033C17.8796 8.63824 17.7481 8.65941 17.6007 8.67596C17.3815 8.98621 17.1596 9.09665 17.1227 9.62649C17.3899 9.99764 17.8436 10.801 18.5035 10.2601C18.7139 10.1306 18.7661 9.9537 18.9285 9.78478C18.9501 9.53691 19.0093 9.38424 18.8752 9.20409C18.7845 8.86915 18.5577 8.82331 18.3442 8.62329C18.2203 8.60564 18.0964 8.58798 17.9724 8.57033ZM13.4583 9.67925C13.1649 9.8578 12.7106 9.81106 12.3961 9.94327C11.4143 10.3562 10.5774 11.1816 10.1657 12.1609C9.16797 14.5339 10.7517 16.4621 12.2899 17.2297C12.725 17.4469 13.5497 17.7691 14.3081 17.5992C15.9146 17.2397 17.0259 16.4839 17.6007 15.1177C18.5794 12.7913 16.9596 10.6045 15.3701 9.94327C14.8346 9.72048 14.2137 9.67133 13.4583 9.67925ZM13.352 11.0521C14.8129 11.0235 15.6309 11.4037 16.1668 12.2665C17.2573 14.0225 15.8641 15.8755 14.4142 16.2267C12.5323 16.6824 10.7396 14.7279 11.3339 12.9001C11.5682 12.1801 12.0736 11.5797 12.7148 11.2632C12.9273 11.1927 13.1398 11.1225 13.352 11.0521Z" stroke="#7C5334"/>
<path fill-rule="evenodd" clip-rule="evenodd" d="M12.6618 0.122454C13.7693 0.10189 15.0488 -0.00243184 16.0073 0.227979C16.9114 0.44525 17.846 0.579464 18.663 0.914398C22.1781 2.35545 24.8059 4.7065 26.3103 8.14803C26.9641 9.64384 27.4781 11.2494 27.4786 13.4281C27.4789 13.8901 27.5122 14.4782 27.4255 14.8538C27.3902 15.2586 27.3548 15.6634 27.3194 16.0681C27.0233 17.2077 26.7499 18.2925 26.3103 19.2889C24.8539 22.5898 22.0571 24.9749 18.663 26.3642C17.5801 26.8075 16.3733 26.868 15.1045 27.1562C14.5558 27.1562 14.0071 27.1562 13.4583 27.1562C11.5779 27.1565 10.0529 26.7144 8.73168 26.1532C4.72703 24.4514 2.22276 21.6886 0.818649 17.3881C0.398425 16.1008 -0.0309912 13.2527 0.39398 11.5274C0.615305 10.6285 0.747534 9.70052 1.08422 8.88721C2.55955 5.32531 5.04877 2.64313 8.57248 1.12555C9.37596 0.779381 10.2839 0.562412 11.1747 0.333605C11.6099 0.22166 12.3014 0.34805 12.6618 0.122454ZM13.5115 5.87772C13.0668 6.14404 11.2067 5.78423 10.5375 5.93028C10.0949 6.0008 9.65234 6.07122 9.20979 6.14163C7.96336 6.54187 6.98816 7.36571 6.50126 8.51767C6.07013 9.53762 6.12963 10.9925 6.12953 12.4248C6.12953 12.8263 6.09145 13.46 6.12953 13.6921C6.12953 14.0615 6.12953 14.4313 6.12953 14.801C6.12953 16.012 6.03175 17.3318 6.34186 18.2857C6.74481 19.5249 7.57283 20.4946 8.73168 20.9787C10.2086 21.5953 12.8749 21.3533 14.7329 21.3481C16.2821 21.3439 17.9279 21.4434 19.0346 20.9787C21.8779 19.7844 21.6368 16.9581 21.6368 13.0056C21.6368 11.4076 21.7505 9.661 21.2652 8.51767C20.1182 5.81633 17.3067 5.86618 13.5115 5.87772ZM11.1747 7.25056C13.6929 7.23049 18.4597 6.83317 19.5126 8.20079C20.452 9.42126 20.3091 11.6774 20.3091 13.8506C20.3091 14.6404 20.4071 15.6368 20.256 16.3321C20.256 16.6313 20.256 16.9304 20.256 17.2297C20.1647 17.6349 20.1019 18.0865 19.9374 18.4441C19.735 18.8845 19.2322 19.3651 18.8222 19.6059C17.864 20.1683 16.0401 20.0282 14.5736 20.0282C12.5502 20.0282 9.91659 20.283 8.67855 19.4474C7.07352 18.3637 7.45717 15.026 7.45717 12.3722C7.45717 11.2411 7.37878 9.94869 7.72274 9.09856C8.10327 8.15756 8.83987 7.62391 9.90003 7.35588C10.2553 7.26641 10.8805 7.4274 11.1747 7.25056ZM17.9724 8.57033C17.8796 8.63824 17.7481 8.65941 17.6007 8.67596C17.3815 8.98621 17.1596 9.09665 17.1227 9.62649C17.3899 9.99764 17.8436 10.801 18.5035 10.2601C18.7139 10.1306 18.7661 9.9537 18.9285 9.78478C18.9501 9.53691 19.0093 9.38424 18.8752 9.20409C18.7845 8.86915 18.5577 8.82331 18.3442 8.62329C18.2203 8.60564 18.0964 8.58798 17.9724 8.57033ZM13.4583 9.67925C13.1649 9.8578 12.7106 9.81106 12.3961 9.94327C11.4143 10.3562 10.5774 11.1816 10.1657 12.1609C9.16797 14.5339 10.7517 16.4621 12.2899 17.2297C12.725 17.4469 13.5497 17.7691 14.3081 17.5992C15.9146 17.2397 17.0259 16.4839 17.6007 15.1177C18.5794 12.7913 16.9596 10.6045 15.3701 9.94327C14.8346 9.72048 14.2137 9.67133 13.4583 9.67925ZM13.352 11.0521C14.8129 11.0235 15.6309 11.4037 16.1668 12.2665C17.2573 14.0225 15.8641 15.8755 14.4142 16.2267C12.5323 16.6824 10.7396 14.7279 11.3339 12.9001C11.5682 12.1801 12.0736 11.5797 12.7148 11.2632C12.9273 11.1927 13.1398 11.1225 13.352 11.0521Z" stroke="#7C5334"/>
<path fill-rule="evenodd" clip-rule="evenodd" d="M12.6618 0.122454C13.7693 0.10189 15.0488 -0.00243184 16.0073 0.227979C16.9114 0.44525 17.846 0.579464 18.663 0.914398C22.1781 2.35545 24.8059 4.7065 26.3103 8.14803C26.9641 9.64384 27.4781 11.2494 27.4786 13.4281C27.4789 13.8901 27.5122 14.4782 27.4255 14.8538C27.3902 15.2586 27.3548 15.6634 27.3194 16.0681C27.0233 17.2077 26.7499 18.2925 26.3103 19.2889C24.8539 22.5898 22.0571 24.9749 18.663 26.3642C17.5801 26.8075 16.3733 26.868 15.1045 27.1562C14.5558 27.1562 14.0071 27.1562 13.4583 27.1562C11.5779 27.1565 10.0529 26.7144 8.73168 26.1532C4.72703 24.4514 2.22276 21.6886 0.818649 17.3881C0.398425 16.1008 -0.0309912 13.2527 0.39398 11.5274C0.615305 10.6285 0.747534 9.70052 1.08422 8.88721C2.55955 5.32531 5.04877 2.64313 8.57248 1.12555C9.37596 0.779381 10.2839 0.562412 11.1747 0.333605C11.6099 0.22166 12.3014 0.34805 12.6618 0.122454ZM13.5115 5.87772C13.0668 6.14404 11.2067 5.78423 10.5375 5.93028C10.0949 6.0008 9.65234 6.07122 9.20979 6.14163C7.96336 6.54187 6.98816 7.36571 6.50126 8.51767C6.07013 9.53762 6.12963 10.9925 6.12953 12.4248C6.12953 12.8263 6.09145 13.46 6.12953 13.6921C6.12953 14.0615 6.12953 14.4313 6.12953 14.801C6.12953 16.012 6.03175 17.3318 6.34186 18.2857C6.74481 19.5249 7.57283 20.4946 8.73168 20.9787C10.2086 21.5953 12.8749 21.3533 14.7329 21.3481C16.2821 21.3439 17.9279 21.4434 19.0346 20.9787C21.8779 19.7844 21.6368 16.9581 21.6368 13.0056C21.6368 11.4076 21.7505 9.661 21.2652 8.51767C20.1182 5.81633 17.3067 5.86618 13.5115 5.87772ZM11.1747 7.25056C13.6929 7.23049 18.4597 6.83317 19.5126 8.20079C20.452 9.42126 20.3091 11.6774 20.3091 13.8506C20.3091 14.6404 20.4071 15.6368 20.256 16.3321C20.256 16.6313 20.256 16.9304 20.256 17.2297C20.1647 17.6349 20.1019 18.0865 19.9374 18.4441C19.735 18.8845 19.2322 19.3651 18.8222 19.6059C17.864 20.1683 16.0401 20.0282 14.5736 20.0282C12.5502 20.0282 9.91659 20.283 8.67855 19.4474C7.07352 18.3637 7.45717 15.026 7.45717 12.3722C7.45717 11.2411 7.37878 9.94869 7.72274 9.09856C8.10327 8.15756 8.83987 7.62391 9.90003 7.35588C10.2553 7.26641 10.8805 7.4274 11.1747 7.25056ZM17.9724 8.57033C17.8796 8.63824 17.7481 8.65941 17.6007 8.67596C17.3815 8.98621 17.1596 9.09665 17.1227 9.62649C17.3899 9.99764 17.8436 10.801 18.5035 10.2601C18.7139 10.1306 18.7661 9.9537 18.9285 9.78478C18.9501 9.53691 19.0093 9.38424 18.8752 9.20409C18.7845 8.86915 18.5577 8.82331 18.3442 8.62329C18.2203 8.60564 18.0964 8.58798 17.9724 8.57033ZM13.4583 9.67925C13.1649 9.8578 12.7106 9.81106 12.3961 9.94327C11.4143 10.3562 10.5774 11.1816 10.1657 12.1609C9.16797 14.5339 10.7517 16.4621 12.2899 17.2297C12.725 17.4469 13.5497 17.7691 14.3081 17.5992C15.9146 17.2397 17.0259 16.4839 17.6007 15.1177C18.5794 12.7913 16.9596 10.6045 15.3701 9.94327C14.8346 9.72048 14.2137 9.67133 13.4583 9.67925ZM13.352 11.0521C14.8129 11.0235 15.6309 11.4037 16.1668 12.2665C17.2573 14.0225 15.8641 15.8755 14.4142 16.2267C12.5323 16.6824 10.7396 14.7279 11.3339 12.9001C11.5682 12.1801 12.0736 11.5797 12.7148 11.2632C12.9273 11.1927 13.1398 11.1225 13.352 11.0521Z" stroke="#7C5334"/>
<path fill-rule="evenodd" clip-rule="evenodd" d="M12.6618 0.122454C13.7693 0.10189 15.0488 -0.00243184 16.0073 0.227979C16.9114 0.44525 17.846 0.579464 18.663 0.914398C22.1781 2.35545 24.8059 4.7065 26.3103 8.14803C26.9641 9.64384 27.4781 11.2494 27.4786 13.4281C27.4789 13.8901 27.5122 14.4782 27.4255 14.8538C27.3902 15.2586 27.3548 15.6634 27.3194 16.0681C27.0233 17.2077 26.7499 18.2925 26.3103 19.2889C24.8539 22.5898 22.0571 24.9749 18.663 26.3642C17.5801 26.8075 16.3733 26.868 15.1045 27.1562C14.5558 27.1562 14.0071 27.1562 13.4583 27.1562C11.5779 27.1565 10.0529 26.7144 8.73168 26.1532C4.72703 24.4514 2.22276 21.6886 0.818649 17.3881C0.398425 16.1008 -0.0309912 13.2527 0.39398 11.5274C0.615305 10.6285 0.747534 9.70052 1.08422 8.88721C2.55955 5.32531 5.04877 2.64313 8.57248 1.12555C9.37596 0.779381 10.2839 0.562412 11.1747 0.333605C11.6099 0.22166 12.3014 0.34805 12.6618 0.122454ZM13.5115 5.87772C13.0668 6.14404 11.2067 5.78423 10.5375 5.93028C10.0949 6.0008 9.65234 6.07122 9.20979 6.14163C7.96336 6.54187 6.98816 7.36571 6.50126 8.51767C6.07013 9.53762 6.12963 10.9925 6.12953 12.4248C6.12953 12.8263 6.09145 13.46 6.12953 13.6921C6.12953 14.0615 6.12953 14.4313 6.12953 14.801C6.12953 16.012 6.03175 17.3318 6.34186 18.2857C6.74481 19.5249 7.57283 20.4946 8.73168 20.9787C10.2086 21.5953 12.8749 21.3533 14.7329 21.3481C16.2821 21.3439 17.9279 21.4434 19.0346 20.9787C21.8779 19.7844 21.6368 16.9581 21.6368 13.0056C21.6368 11.4076 21.7505 9.661 21.2652 8.51767C20.1182 5.81633 17.3067 5.86618 13.5115 5.87772ZM11.1747 7.25056C13.6929 7.23049 18.4597 6.83317 19.5126 8.20079C20.452 9.42126 20.3091 11.6774 20.3091 13.8506C20.3091 14.6404 20.4071 15.6368 20.256 16.3321C20.256 16.6313 20.256 16.9304 20.256 17.2297C20.1647 17.6349 20.1019 18.0865 19.9374 18.4441C19.735 18.8845 19.2322 19.3651 18.8222 19.6059C17.864 20.1683 16.0401 20.0282 14.5736 20.0282C12.5502 20.0282 9.91659 20.283 8.67855 19.4474C7.07352 18.3637 7.45717 15.026 7.45717 12.3722C7.45717 11.2411 7.37878 9.94869 7.72274 9.09856C8.10327 8.15756 8.83987 7.62391 9.90003 7.35588C10.2553 7.26641 10.8805 7.4274 11.1747 7.25056ZM17.9724 8.57033C17.8796 8.63824 17.7481 8.65941 17.6007 8.67596C17.3815 8.98621 17.1596 9.09665 17.1227 9.62649C17.3899 9.99764 17.8436 10.801 18.5035 10.2601C18.7139 10.1306 18.7661 9.9537 18.9285 9.78478C18.9501 9.53691 19.0093 9.38424 18.8752 9.20409C18.7845 8.86915 18.5577 8.82331 18.3442 8.62329C18.2203 8.60564 18.0964 8.58798 17.9724 8.57033ZM13.4583 9.67925C13.1649 9.8578 12.7106 9.81106 12.3961 9.94327C11.4143 10.3562 10.5774 11.1816 10.1657 12.1609C9.16797 14.5339 10.7517 16.4621 12.2899 17.2297C12.725 17.4469 13.5497 17.7691 14.3081 17.5992C15.9146 17.2397 17.0259 16.4839 17.6007 15.1177C18.5794 12.7913 16.9596 10.6045 15.3701 9.94327C14.8346 9.72048 14.2137 9.67133 13.4583 9.67925ZM13.352 11.0521C14.8129 11.0235 15.6309 11.4037 16.1668 12.2665C17.2573 14.0225 15.8641 15.8755 14.4142 16.2267C12.5323 16.6824 10.7396 14.7279 11.3339 12.9001C11.5682 12.1801 12.0736 11.5797 12.7148 11.2632C12.9273 11.1927 13.1398 11.1225 13.352 11.0521Z" stroke="#7C5334"/>
<path fill-rule="evenodd" clip-rule="evenodd" d="M12.6618 0.122454C13.7693 0.10189 15.0488 -0.00243184 16.0073 0.227979C16.9114 0.44525 17.846 0.579464 18.663 0.914398C22.1781 2.35545 24.8059 4.7065 26.3103 8.14803C26.9641 9.64384 27.4781 11.2494 27.4786 13.4281C27.4789 13.8901 27.5122 14.4782 27.4255 14.8538C27.3902 15.2586 27.3548 15.6634 27.3194 16.0681C27.0233 17.2077 26.7499 18.2925 26.3103 19.2889C24.8539 22.5898 22.0571 24.9749 18.663 26.3642C17.5801 26.8075 16.3733 26.868 15.1045 27.1562C14.5558 27.1562 14.0071 27.1562 13.4583 27.1562C11.5779 27.1565 10.0529 26.7144 8.73168 26.1532C4.72703 24.4514 2.22276 21.6886 0.818649 17.3881C0.398425 16.1008 -0.0309912 13.2527 0.39398 11.5274C0.615305 10.6285 0.747534 9.70052 1.08422 8.88721C2.55955 5.32531 5.04877 2.64313 8.57248 1.12555C9.37596 0.779381 10.2839 0.562412 11.1747 0.333605C11.6099 0.22166 12.3014 0.34805 12.6618 0.122454ZM13.5115 5.87772C13.0668 6.14404 11.2067 5.78423 10.5375 5.93028C10.0949 6.0008 9.65234 6.07122 9.20979 6.14163C7.96336 6.54187 6.98816 7.36571 6.50126 8.51767C6.07013 9.53762 6.12963 10.9925 6.12953 12.4248C6.12953 12.8263 6.09145 13.46 6.12953 13.6921C6.12953 14.0615 6.12953 14.4313 6.12953 14.801C6.12953 16.012 6.03175 17.3318 6.34186 18.2857C6.74481 19.5249 7.57283 20.4946 8.73168 20.9787C10.2086 21.5953 12.8749 21.3533 14.7329 21.3481C16.2821 21.3439 17.9279 21.4434 19.0346 20.9787C21.8779 19.7844 21.6368 16.9581 21.6368 13.0056C21.6368 11.4076 21.7505 9.661 21.2652 8.51767C20.1182 5.81633 17.3067 5.86618 13.5115 5.87772ZM11.1747 7.25056C13.6929 7.23049 18.4597 6.83317 19.5126 8.20079C20.452 9.42126 20.3091 11.6774 20.3091 13.8506C20.3091 14.6404 20.4071 15.6368 20.256 16.3321C20.256 16.6313 20.256 16.9304 20.256 17.2297C20.1647 17.6349 20.1019 18.0865 19.9374 18.4441C19.735 18.8845 19.2322 19.3651 18.8222 19.6059C17.864 20.1683 16.0401 20.0282 14.5736 20.0282C12.5502 20.0282 9.91659 20.283 8.67855 19.4474C7.07352 18.3637 7.45717 15.026 7.45717 12.3722C7.45717 11.2411 7.37878 9.94869 7.72274 9.09856C8.10327 8.15756 8.83987 7.62391 9.90003 7.35588C10.2553 7.26641 10.8805 7.4274 11.1747 7.25056ZM17.9724 8.57033C17.8796 8.63824 17.7481 8.65941 17.6007 8.67596C17.3815 8.98621 17.1596 9.09665 17.1227 9.62649C17.3899 9.99764 17.8436 10.801 18.5035 10.2601C18.7139 10.1306 18.7661 9.9537 18.9285 9.78478C18.9501 9.53691 19.0093 9.38424 18.8752 9.20409C18.7845 8.86915 18.5577 8.82331 18.3442 8.62329C18.2203 8.60564 18.0964 8.58798 17.9724 8.57033ZM13.4583 9.67925C13.1649 9.8578 12.7106 9.81106 12.3961 9.94327C11.4143 10.3562 10.5774 11.1816 10.1657 12.1609C9.16797 14.5339 10.7517 16.4621 12.2899 17.2297C12.725 17.4469 13.5497 17.7691 14.3081 17.5992C15.9146 17.2397 17.0259 16.4839 17.6007 15.1177C18.5794 12.7913 16.9596 10.6045 15.3701 9.94327C14.8346 9.72048 14.2137 9.67133 13.4583 9.67925ZM13.352 11.0521C14.8129 11.0235 15.6309 11.4037 16.1668 12.2665C17.2573 14.0225 15.8641 15.8755 14.4142 16.2267C12.5323 16.6824 10.7396 14.7279 11.3339 12.9001C11.5682 12.1801 12.0736 11.5797 12.7148 11.2632C12.9273 11.1927 13.1398 11.1225 13.352 11.0521Z" stroke="#7C5334"/>
</svg>
