<svg width="28" height="28" viewBox="0 0 28 28" fill="none" xmlns="http://www.w3.org/2000/svg">
<path fill-rule="evenodd" clip-rule="evenodd" d="M12.9217 0.122454C14.0292 0.10189 15.3087 -0.00243184 16.2674 0.227979C17.1712 0.44525 18.106 0.579464 18.9229 0.914398C22.3922 2.33639 25.0265 4.65264 26.5172 8.0424C27.1892 9.57042 27.7383 11.1895 27.7388 13.4281C27.7388 13.8901 27.7725 14.4782 27.6855 14.8538C27.6502 15.2586 27.6148 15.6634 27.5795 16.0681C27.2835 17.2077 27.0099 18.2925 26.5703 19.2889C25.1134 22.5914 22.319 24.9741 18.9229 26.3642C17.8401 26.8075 16.6332 26.868 15.3647 27.1562C14.8159 27.1562 14.267 27.1562 13.7182 27.1562C11.8384 27.1565 10.3121 26.7151 8.99163 26.1532C4.98633 24.4484 2.48335 21.691 1.07851 17.3881C0.658281 16.1008 0.228658 13.2527 0.653837 11.5274C0.875063 10.6285 1.00739 9.70052 1.34408 8.88721C2.81912 5.32531 5.30857 2.64313 8.83233 1.12555C9.63582 0.779381 10.5439 0.562412 11.4346 0.333605C11.8699 0.22166 12.5612 0.34805 12.9217 0.122454ZM6.38925 5.71903C6.38925 5.75454 6.38925 5.78955 6.38925 5.82476C6.92787 6.25799 7.35537 7.24273 7.77014 7.83125C8.85395 9.369 10.0105 10.918 11.0629 12.4778C11.4139 12.9978 11.9924 14.1378 12.4438 14.484C12.3954 14.5413 12.4478 14.4886 12.3904 14.5369C12.0298 15.1425 11.4256 15.5728 11.0098 16.1209C10.0737 17.3548 8.97093 18.4236 8.03561 19.6587C7.65256 20.1645 6.59502 21.0003 6.38925 21.5594C6.8319 21.5594 7.27446 21.5594 7.71701 21.5594C7.97622 21.165 8.39341 20.8723 8.67303 20.5035C9.5947 19.2876 10.6731 18.2348 11.594 17.0186C12.0057 16.475 12.6467 16.0565 12.9747 15.4345C13.068 15.4677 13.0263 15.4446 13.081 15.4874C13.5867 15.9831 13.8888 16.6958 14.3024 17.2826C14.9564 18.2103 15.6654 19.1534 16.3206 20.0811C16.4714 20.2946 17.1461 21.4912 17.2764 21.5594C18.8342 21.5594 20.3924 21.5594 21.9499 21.5594C21.9499 21.5419 21.9499 21.5242 21.9499 21.5067C21.6694 21.3019 21.5676 20.948 21.3658 20.6619C20.9775 20.111 20.5977 19.5403 20.1973 18.9721C19.1809 17.5297 18.1991 16.0495 17.1703 14.5897C16.7323 13.9683 15.8752 13.0963 15.6302 12.3722C16.1598 12.0082 16.7706 11.1046 17.1703 10.5768C18.0434 9.42387 19.2172 8.45598 20.0912 7.30312C20.4671 6.80759 20.8986 6.11475 21.4189 5.77199C21.4189 5.75454 21.4189 5.73688 21.4189 5.71903C20.9588 5.71903 20.4983 5.71903 20.038 5.71903C18.3742 7.65521 16.7099 9.59138 15.046 11.5274C14.9884 11.4794 15.0414 11.5314 14.9928 11.4744C14.2502 10.7339 13.699 9.55306 13.081 8.67596C12.4071 7.71991 11.5614 6.76887 11.0098 5.71903C9.46975 5.71903 7.92935 5.71903 6.38925 5.71903ZM8.19502 6.72253C8.92092 6.72253 9.64662 6.72253 10.3725 6.72253C10.5171 7.19438 10.9578 7.56382 11.2222 7.93677C11.7255 8.64757 12.2176 9.35435 12.7092 10.0489C14.4605 12.5233 16.1141 15.0163 17.8607 17.4936C18.3869 18.2405 18.9155 19.0003 19.4539 19.7642C19.6438 20.0338 19.9333 20.2526 20.038 20.6089C19.3477 20.6089 18.6572 20.6089 17.9669 20.6089C14.71 15.9806 11.452 11.3509 8.19502 6.72253Z" fill="#FFF6DC"/>
<path fill-rule="evenodd" clip-rule="evenodd" d="M12.9217 0.122454C14.0292 0.10189 15.3087 -0.00243184 16.2674 0.227979C17.1712 0.44525 18.106 0.579464 18.9229 0.914398C22.3922 2.33639 25.0265 4.65264 26.5172 8.0424C27.1892 9.57042 27.7383 11.1895 27.7388 13.4281C27.7388 13.8901 27.7725 14.4782 27.6855 14.8538C27.6502 15.2586 27.6148 15.6634 27.5795 16.0681C27.2835 17.2077 27.0099 18.2925 26.5703 19.2889C25.1134 22.5914 22.319 24.9741 18.9229 26.3642C17.8401 26.8075 16.6332 26.868 15.3647 27.1562C14.8159 27.1562 14.267 27.1562 13.7182 27.1562C11.8384 27.1565 10.3121 26.7151 8.99163 26.1532C4.98633 24.4484 2.48335 21.691 1.07851 17.3881C0.658281 16.1008 0.228658 13.2527 0.653837 11.5274C0.875063 10.6285 1.00739 9.70052 1.34408 8.88721C2.81912 5.32531 5.30857 2.64313 8.83233 1.12555C9.63582 0.779381 10.5439 0.562412 11.4346 0.333605C11.8699 0.22166 12.5612 0.34805 12.9217 0.122454ZM6.38925 5.71903C6.38925 5.75454 6.38925 5.78955 6.38925 5.82476C6.92787 6.25799 7.35537 7.24273 7.77014 7.83125C8.85395 9.369 10.0105 10.918 11.0629 12.4778C11.4139 12.9978 11.9924 14.1378 12.4438 14.484C12.3954 14.5413 12.4478 14.4886 12.3904 14.5369C12.0298 15.1425 11.4256 15.5728 11.0098 16.1209C10.0737 17.3548 8.97093 18.4236 8.03561 19.6587C7.65256 20.1645 6.59502 21.0003 6.38925 21.5594C6.8319 21.5594 7.27446 21.5594 7.71701 21.5594C7.97622 21.165 8.39341 20.8723 8.67303 20.5035C9.5947 19.2876 10.6731 18.2348 11.594 17.0186C12.0057 16.475 12.6467 16.0565 12.9747 15.4345C13.068 15.4677 13.0263 15.4446 13.081 15.4874C13.5867 15.9831 13.8888 16.6958 14.3024 17.2826C14.9564 18.2103 15.6654 19.1534 16.3206 20.0811C16.4714 20.2946 17.1461 21.4912 17.2764 21.5594C18.8342 21.5594 20.3924 21.5594 21.9499 21.5594C21.9499 21.5419 21.9499 21.5242 21.9499 21.5067C21.6694 21.3019 21.5676 20.948 21.3658 20.6619C20.9775 20.111 20.5977 19.5403 20.1973 18.9721C19.1809 17.5297 18.1991 16.0495 17.1703 14.5897C16.7323 13.9683 15.8752 13.0963 15.6302 12.3722C16.1598 12.0082 16.7706 11.1046 17.1703 10.5768C18.0434 9.42387 19.2172 8.45598 20.0912 7.30312C20.4671 6.80759 20.8986 6.11475 21.4189 5.77199C21.4189 5.75454 21.4189 5.73688 21.4189 5.71903C20.9588 5.71903 20.4983 5.71903 20.038 5.71903C18.3742 7.65521 16.7099 9.59138 15.046 11.5274C14.9884 11.4794 15.0414 11.5314 14.9928 11.4744C14.2502 10.7339 13.699 9.55306 13.081 8.67596C12.4071 7.71991 11.5614 6.76887 11.0098 5.71903C9.46975 5.71903 7.92935 5.71903 6.38925 5.71903ZM8.19502 6.72253C8.92092 6.72253 9.64662 6.72253 10.3725 6.72253C10.5171 7.19438 10.9578 7.56382 11.2222 7.93677C11.7255 8.64757 12.2176 9.35435 12.7092 10.0489C14.4605 12.5233 16.1141 15.0163 17.8607 17.4936C18.3869 18.2405 18.9155 19.0003 19.4539 19.7642C19.6438 20.0338 19.9333 20.2526 20.038 20.6089C19.3477 20.6089 18.6572 20.6089 17.9669 20.6089C14.71 15.9806 11.452 11.3509 8.19502 6.72253Z" fill="#FFF6DC"/>
<path fill-rule="evenodd" clip-rule="evenodd" d="M12.9217 0.122454C14.0292 0.10189 15.3087 -0.00243184 16.2674 0.227979C17.1712 0.44525 18.106 0.579464 18.9229 0.914398C22.3922 2.33639 25.0265 4.65264 26.5172 8.0424C27.1892 9.57042 27.7383 11.1895 27.7388 13.4281C27.7388 13.8901 27.7725 14.4782 27.6855 14.8538C27.6502 15.2586 27.6148 15.6634 27.5795 16.0681C27.2835 17.2077 27.0099 18.2925 26.5703 19.2889C25.1134 22.5914 22.319 24.9741 18.9229 26.3642C17.8401 26.8075 16.6332 26.868 15.3647 27.1562C14.8159 27.1562 14.267 27.1562 13.7182 27.1562C11.8384 27.1565 10.3121 26.7151 8.99163 26.1532C4.98633 24.4484 2.48335 21.691 1.07851 17.3881C0.658281 16.1008 0.228658 13.2527 0.653837 11.5274C0.875063 10.6285 1.00739 9.70052 1.34408 8.88721C2.81912 5.32531 5.30857 2.64313 8.83233 1.12555C9.63582 0.779381 10.5439 0.562412 11.4346 0.333605C11.8699 0.22166 12.5612 0.34805 12.9217 0.122454ZM6.38925 5.71903C6.38925 5.75454 6.38925 5.78955 6.38925 5.82476C6.92787 6.25799 7.35537 7.24273 7.77014 7.83125C8.85395 9.369 10.0105 10.918 11.0629 12.4778C11.4139 12.9978 11.9924 14.1378 12.4438 14.484C12.3954 14.5413 12.4478 14.4886 12.3904 14.5369C12.0298 15.1425 11.4256 15.5728 11.0098 16.1209C10.0737 17.3548 8.97093 18.4236 8.03561 19.6587C7.65256 20.1645 6.59502 21.0003 6.38925 21.5594C6.8319 21.5594 7.27446 21.5594 7.71701 21.5594C7.97622 21.165 8.39341 20.8723 8.67303 20.5035C9.5947 19.2876 10.6731 18.2348 11.594 17.0186C12.0057 16.475 12.6467 16.0565 12.9747 15.4345C13.068 15.4677 13.0263 15.4446 13.081 15.4874C13.5867 15.9831 13.8888 16.6958 14.3024 17.2826C14.9564 18.2103 15.6654 19.1534 16.3206 20.0811C16.4714 20.2946 17.1461 21.4912 17.2764 21.5594C18.8342 21.5594 20.3924 21.5594 21.9499 21.5594C21.9499 21.5419 21.9499 21.5242 21.9499 21.5067C21.6694 21.3019 21.5676 20.948 21.3658 20.6619C20.9775 20.111 20.5977 19.5403 20.1973 18.9721C19.1809 17.5297 18.1991 16.0495 17.1703 14.5897C16.7323 13.9683 15.8752 13.0963 15.6302 12.3722C16.1598 12.0082 16.7706 11.1046 17.1703 10.5768C18.0434 9.42387 19.2172 8.45598 20.0912 7.30312C20.4671 6.80759 20.8986 6.11475 21.4189 5.77199C21.4189 5.75454 21.4189 5.73688 21.4189 5.71903C20.9588 5.71903 20.4983 5.71903 20.038 5.71903C18.3742 7.65521 16.7099 9.59138 15.046 11.5274C14.9884 11.4794 15.0414 11.5314 14.9928 11.4744C14.2502 10.7339 13.699 9.55306 13.081 8.67596C12.4071 7.71991 11.5614 6.76887 11.0098 5.71903C9.46975 5.71903 7.92935 5.71903 6.38925 5.71903ZM8.19502 6.72253C8.92092 6.72253 9.64662 6.72253 10.3725 6.72253C10.5171 7.19438 10.9578 7.56382 11.2222 7.93677C11.7255 8.64757 12.2176 9.35435 12.7092 10.0489C14.4605 12.5233 16.1141 15.0163 17.8607 17.4936C18.3869 18.2405 18.9155 19.0003 19.4539 19.7642C19.6438 20.0338 19.9333 20.2526 20.038 20.6089C19.3477 20.6089 18.6572 20.6089 17.9669 20.6089C14.71 15.9806 11.452 11.3509 8.19502 6.72253Z" fill="#FFF6DC"/>
<path fill-rule="evenodd" clip-rule="evenodd" d="M12.9217 0.122454C14.0292 0.10189 15.3087 -0.00243184 16.2674 0.227979C17.1712 0.44525 18.106 0.579464 18.9229 0.914398C22.3922 2.33639 25.0265 4.65264 26.5172 8.0424C27.1892 9.57042 27.7383 11.1895 27.7388 13.4281C27.7388 13.8901 27.7725 14.4782 27.6855 14.8538C27.6502 15.2586 27.6148 15.6634 27.5795 16.0681C27.2835 17.2077 27.0099 18.2925 26.5703 19.2889C25.1134 22.5914 22.319 24.9741 18.9229 26.3642C17.8401 26.8075 16.6332 26.868 15.3647 27.1562C14.8159 27.1562 14.267 27.1562 13.7182 27.1562C11.8384 27.1565 10.3121 26.7151 8.99163 26.1532C4.98633 24.4484 2.48335 21.691 1.07851 17.3881C0.658281 16.1008 0.228658 13.2527 0.653837 11.5274C0.875063 10.6285 1.00739 9.70052 1.34408 8.88721C2.81912 5.32531 5.30857 2.64313 8.83233 1.12555C9.63582 0.779381 10.5439 0.562412 11.4346 0.333605C11.8699 0.22166 12.5612 0.34805 12.9217 0.122454ZM6.38925 5.71903C6.38925 5.75454 6.38925 5.78955 6.38925 5.82476C6.92787 6.25799 7.35537 7.24273 7.77014 7.83125C8.85395 9.369 10.0105 10.918 11.0629 12.4778C11.4139 12.9978 11.9924 14.1378 12.4438 14.484C12.3954 14.5413 12.4478 14.4886 12.3904 14.5369C12.0298 15.1425 11.4256 15.5728 11.0098 16.1209C10.0737 17.3548 8.97093 18.4236 8.03561 19.6587C7.65256 20.1645 6.59502 21.0003 6.38925 21.5594C6.8319 21.5594 7.27446 21.5594 7.71701 21.5594C7.97622 21.165 8.39341 20.8723 8.67303 20.5035C9.5947 19.2876 10.6731 18.2348 11.594 17.0186C12.0057 16.475 12.6467 16.0565 12.9747 15.4345C13.068 15.4677 13.0263 15.4446 13.081 15.4874C13.5867 15.9831 13.8888 16.6958 14.3024 17.2826C14.9564 18.2103 15.6654 19.1534 16.3206 20.0811C16.4714 20.2946 17.1461 21.4912 17.2764 21.5594C18.8342 21.5594 20.3924 21.5594 21.9499 21.5594C21.9499 21.5419 21.9499 21.5242 21.9499 21.5067C21.6694 21.3019 21.5676 20.948 21.3658 20.6619C20.9775 20.111 20.5977 19.5403 20.1973 18.9721C19.1809 17.5297 18.1991 16.0495 17.1703 14.5897C16.7323 13.9683 15.8752 13.0963 15.6302 12.3722C16.1598 12.0082 16.7706 11.1046 17.1703 10.5768C18.0434 9.42387 19.2172 8.45598 20.0912 7.30312C20.4671 6.80759 20.8986 6.11475 21.4189 5.77199C21.4189 5.75454 21.4189 5.73688 21.4189 5.71903C20.9588 5.71903 20.4983 5.71903 20.038 5.71903C18.3742 7.65521 16.7099 9.59138 15.046 11.5274C14.9884 11.4794 15.0414 11.5314 14.9928 11.4744C14.2502 10.7339 13.699 9.55306 13.081 8.67596C12.4071 7.71991 11.5614 6.76887 11.0098 5.71903C9.46975 5.71903 7.92935 5.71903 6.38925 5.71903ZM8.19502 6.72253C8.92092 6.72253 9.64662 6.72253 10.3725 6.72253C10.5171 7.19438 10.9578 7.56382 11.2222 7.93677C11.7255 8.64757 12.2176 9.35435 12.7092 10.0489C14.4605 12.5233 16.1141 15.0163 17.8607 17.4936C18.3869 18.2405 18.9155 19.0003 19.4539 19.7642C19.6438 20.0338 19.9333 20.2526 20.038 20.6089C19.3477 20.6089 18.6572 20.6089 17.9669 20.6089C14.71 15.9806 11.452 11.3509 8.19502 6.72253Z" stroke="#7C5334"/>
<path fill-rule="evenodd" clip-rule="evenodd" d="M12.9217 0.122454C14.0292 0.10189 15.3087 -0.00243184 16.2674 0.227979C17.1712 0.44525 18.106 0.579464 18.9229 0.914398C22.3922 2.33639 25.0265 4.65264 26.5172 8.0424C27.1892 9.57042 27.7383 11.1895 27.7388 13.4281C27.7388 13.8901 27.7725 14.4782 27.6855 14.8538C27.6502 15.2586 27.6148 15.6634 27.5795 16.0681C27.2835 17.2077 27.0099 18.2925 26.5703 19.2889C25.1134 22.5914 22.319 24.9741 18.9229 26.3642C17.8401 26.8075 16.6332 26.868 15.3647 27.1562C14.8159 27.1562 14.267 27.1562 13.7182 27.1562C11.8384 27.1565 10.3121 26.7151 8.99163 26.1532C4.98633 24.4484 2.48335 21.691 1.07851 17.3881C0.658281 16.1008 0.228658 13.2527 0.653837 11.5274C0.875063 10.6285 1.00739 9.70052 1.34408 8.88721C2.81912 5.32531 5.30857 2.64313 8.83233 1.12555C9.63582 0.779381 10.5439 0.562412 11.4346 0.333605C11.8699 0.22166 12.5612 0.34805 12.9217 0.122454ZM6.38925 5.71903C6.38925 5.75454 6.38925 5.78955 6.38925 5.82476C6.92787 6.25799 7.35537 7.24273 7.77014 7.83125C8.85395 9.369 10.0105 10.918 11.0629 12.4778C11.4139 12.9978 11.9924 14.1378 12.4438 14.484C12.3954 14.5413 12.4478 14.4886 12.3904 14.5369C12.0298 15.1425 11.4256 15.5728 11.0098 16.1209C10.0737 17.3548 8.97093 18.4236 8.03561 19.6587C7.65256 20.1645 6.59502 21.0003 6.38925 21.5594C6.8319 21.5594 7.27446 21.5594 7.71701 21.5594C7.97622 21.165 8.39341 20.8723 8.67303 20.5035C9.5947 19.2876 10.6731 18.2348 11.594 17.0186C12.0057 16.475 12.6467 16.0565 12.9747 15.4345C13.068 15.4677 13.0263 15.4446 13.081 15.4874C13.5867 15.9831 13.8888 16.6958 14.3024 17.2826C14.9564 18.2103 15.6654 19.1534 16.3206 20.0811C16.4714 20.2946 17.1461 21.4912 17.2764 21.5594C18.8342 21.5594 20.3924 21.5594 21.9499 21.5594C21.9499 21.5419 21.9499 21.5242 21.9499 21.5067C21.6694 21.3019 21.5676 20.948 21.3658 20.6619C20.9775 20.111 20.5977 19.5403 20.1973 18.9721C19.1809 17.5297 18.1991 16.0495 17.1703 14.5897C16.7323 13.9683 15.8752 13.0963 15.6302 12.3722C16.1598 12.0082 16.7706 11.1046 17.1703 10.5768C18.0434 9.42387 19.2172 8.45598 20.0912 7.30312C20.4671 6.80759 20.8986 6.11475 21.4189 5.77199C21.4189 5.75454 21.4189 5.73688 21.4189 5.71903C20.9588 5.71903 20.4983 5.71903 20.038 5.71903C18.3742 7.65521 16.7099 9.59138 15.046 11.5274C14.9884 11.4794 15.0414 11.5314 14.9928 11.4744C14.2502 10.7339 13.699 9.55306 13.081 8.67596C12.4071 7.71991 11.5614 6.76887 11.0098 5.71903C9.46975 5.71903 7.92935 5.71903 6.38925 5.71903ZM8.19502 6.72253C8.92092 6.72253 9.64662 6.72253 10.3725 6.72253C10.5171 7.19438 10.9578 7.56382 11.2222 7.93677C11.7255 8.64757 12.2176 9.35435 12.7092 10.0489C14.4605 12.5233 16.1141 15.0163 17.8607 17.4936C18.3869 18.2405 18.9155 19.0003 19.4539 19.7642C19.6438 20.0338 19.9333 20.2526 20.038 20.6089C19.3477 20.6089 18.6572 20.6089 17.9669 20.6089C14.71 15.9806 11.452 11.3509 8.19502 6.72253Z" stroke="#7C5334"/>
<path fill-rule="evenodd" clip-rule="evenodd" d="M12.9217 0.122454C14.0292 0.10189 15.3087 -0.00243184 16.2674 0.227979C17.1712 0.44525 18.106 0.579464 18.9229 0.914398C22.3922 2.33639 25.0265 4.65264 26.5172 8.0424C27.1892 9.57042 27.7383 11.1895 27.7388 13.4281C27.7388 13.8901 27.7725 14.4782 27.6855 14.8538C27.6502 15.2586 27.6148 15.6634 27.5795 16.0681C27.2835 17.2077 27.0099 18.2925 26.5703 19.2889C25.1134 22.5914 22.319 24.9741 18.9229 26.3642C17.8401 26.8075 16.6332 26.868 15.3647 27.1562C14.8159 27.1562 14.267 27.1562 13.7182 27.1562C11.8384 27.1565 10.3121 26.7151 8.99163 26.1532C4.98633 24.4484 2.48335 21.691 1.07851 17.3881C0.658281 16.1008 0.228658 13.2527 0.653837 11.5274C0.875063 10.6285 1.00739 9.70052 1.34408 8.88721C2.81912 5.32531 5.30857 2.64313 8.83233 1.12555C9.63582 0.779381 10.5439 0.562412 11.4346 0.333605C11.8699 0.22166 12.5612 0.34805 12.9217 0.122454ZM6.38925 5.71903C6.38925 5.75454 6.38925 5.78955 6.38925 5.82476C6.92787 6.25799 7.35537 7.24273 7.77014 7.83125C8.85395 9.369 10.0105 10.918 11.0629 12.4778C11.4139 12.9978 11.9924 14.1378 12.4438 14.484C12.3954 14.5413 12.4478 14.4886 12.3904 14.5369C12.0298 15.1425 11.4256 15.5728 11.0098 16.1209C10.0737 17.3548 8.97093 18.4236 8.03561 19.6587C7.65256 20.1645 6.59502 21.0003 6.38925 21.5594C6.8319 21.5594 7.27446 21.5594 7.71701 21.5594C7.97622 21.165 8.39341 20.8723 8.67303 20.5035C9.5947 19.2876 10.6731 18.2348 11.594 17.0186C12.0057 16.475 12.6467 16.0565 12.9747 15.4345C13.068 15.4677 13.0263 15.4446 13.081 15.4874C13.5867 15.9831 13.8888 16.6958 14.3024 17.2826C14.9564 18.2103 15.6654 19.1534 16.3206 20.0811C16.4714 20.2946 17.1461 21.4912 17.2764 21.5594C18.8342 21.5594 20.3924 21.5594 21.9499 21.5594C21.9499 21.5419 21.9499 21.5242 21.9499 21.5067C21.6694 21.3019 21.5676 20.948 21.3658 20.6619C20.9775 20.111 20.5977 19.5403 20.1973 18.9721C19.1809 17.5297 18.1991 16.0495 17.1703 14.5897C16.7323 13.9683 15.8752 13.0963 15.6302 12.3722C16.1598 12.0082 16.7706 11.1046 17.1703 10.5768C18.0434 9.42387 19.2172 8.45598 20.0912 7.30312C20.4671 6.80759 20.8986 6.11475 21.4189 5.77199C21.4189 5.75454 21.4189 5.73688 21.4189 5.71903C20.9588 5.71903 20.4983 5.71903 20.038 5.71903C18.3742 7.65521 16.7099 9.59138 15.046 11.5274C14.9884 11.4794 15.0414 11.5314 14.9928 11.4744C14.2502 10.7339 13.699 9.55306 13.081 8.67596C12.4071 7.71991 11.5614 6.76887 11.0098 5.71903C9.46975 5.71903 7.92935 5.71903 6.38925 5.71903ZM8.19502 6.72253C8.92092 6.72253 9.64662 6.72253 10.3725 6.72253C10.5171 7.19438 10.9578 7.56382 11.2222 7.93677C11.7255 8.64757 12.2176 9.35435 12.7092 10.0489C14.4605 12.5233 16.1141 15.0163 17.8607 17.4936C18.3869 18.2405 18.9155 19.0003 19.4539 19.7642C19.6438 20.0338 19.9333 20.2526 20.038 20.6089C19.3477 20.6089 18.6572 20.6089 17.9669 20.6089C14.71 15.9806 11.452 11.3509 8.19502 6.72253Z" stroke="#7C5334"/>
</svg>
