<svg width="29" height="28" viewBox="0 0 29 28" fill="none" xmlns="http://www.w3.org/2000/svg">
<path fill-rule="evenodd" clip-rule="evenodd" d="M13.212 0.122731C14.313 0.102369 15.5788 0.00116459 16.5312 0.228348C17.4422 0.445602 18.3845 0.579907 19.208 0.914614C22.7052 2.3368 25.3608 4.65287 26.8636 8.04267C27.3296 9.09363 27.6739 10.2438 27.9879 11.5276C28.0056 11.8266 28.0235 12.126 28.0414 12.4251C28.4927 14.4647 27.657 17.6054 27.0776 18.9194C25.4977 22.5027 22.7532 24.9176 19.0474 26.417C17.9956 26.8425 16.7962 26.88 15.5676 27.1561C15.0144 27.1561 14.461 27.1561 13.9079 27.1561C11.994 27.1563 10.4293 26.6769 9.08963 26.1001C5.10747 24.3862 2.62442 21.6557 1.21982 17.3882C0.798544 16.1078 0.367263 13.2909 0.791602 11.5802C1.00464 10.7219 1.11162 9.82112 1.43418 9.04589C2.95443 5.39049 5.40298 2.68504 9.03615 1.12595C9.84859 0.777301 10.7636 0.57118 11.6596 0.333966C12.0648 0.226543 12.906 0.312 13.212 0.122731ZM9.62504 8.57066C9.48253 8.65913 9.27276 8.61068 9.08963 8.67628C8.49197 8.89022 7.90461 9.33787 7.59062 9.83777C7.18833 10.4784 7.21599 11.4177 7.21599 12.4778C7.21599 14.4964 6.971 16.6446 7.85837 17.8106C8.857 19.1227 12.4863 18.7083 14.8181 18.7083C17.0228 18.7083 19.9647 19.071 20.9211 17.8106C21.5897 16.9295 21.5635 16.0376 21.5635 14.4843C21.5635 12.5259 21.7808 10.598 20.9211 9.46826C20.2217 8.5491 18.8299 8.57066 17.1736 8.57066C14.6577 8.57066 12.1411 8.57066 9.62504 8.57066ZM12.4624 11.4217C13.3856 11.8266 14.2458 12.4433 15.0857 12.953C15.4408 13.1684 16.1318 13.3247 16.3171 13.6923C15.881 13.8208 15.4997 14.158 15.1393 14.3786C14.2714 14.9097 13.3738 15.4167 12.4624 15.857C12.4624 14.3788 12.4624 12.9002 12.4624 11.4217Z" fill="#FFF6DC"/>
<path fill-rule="evenodd" clip-rule="evenodd" d="M13.212 0.122731C14.313 0.102369 15.5788 0.00116459 16.5312 0.228348C17.4422 0.445602 18.3845 0.579907 19.208 0.914614C22.7052 2.3368 25.3608 4.65287 26.8636 8.04267C27.3296 9.09363 27.6739 10.2438 27.9879 11.5276C28.0056 11.8266 28.0235 12.126 28.0414 12.4251C28.4927 14.4647 27.657 17.6054 27.0776 18.9194C25.4977 22.5027 22.7532 24.9176 19.0474 26.417C17.9956 26.8425 16.7962 26.88 15.5676 27.1561C15.0144 27.1561 14.461 27.1561 13.9079 27.1561C11.994 27.1563 10.4293 26.6769 9.08963 26.1001C5.10747 24.3862 2.62442 21.6557 1.21982 17.3882C0.798544 16.1078 0.367263 13.2909 0.791602 11.5802C1.00464 10.7219 1.11162 9.82112 1.43418 9.04589C2.95443 5.39049 5.40298 2.68504 9.03615 1.12595C9.84859 0.777301 10.7636 0.57118 11.6596 0.333966C12.0648 0.226543 12.906 0.312 13.212 0.122731ZM9.62504 8.57066C9.48253 8.65913 9.27276 8.61068 9.08963 8.67628C8.49197 8.89022 7.90461 9.33787 7.59062 9.83777C7.18833 10.4784 7.21599 11.4177 7.21599 12.4778C7.21599 14.4964 6.971 16.6446 7.85837 17.8106C8.857 19.1227 12.4863 18.7083 14.8181 18.7083C17.0228 18.7083 19.9647 19.071 20.9211 17.8106C21.5897 16.9295 21.5635 16.0376 21.5635 14.4843C21.5635 12.5259 21.7808 10.598 20.9211 9.46826C20.2217 8.5491 18.8299 8.57066 17.1736 8.57066C14.6577 8.57066 12.1411 8.57066 9.62504 8.57066ZM12.4624 11.4217C13.3856 11.8266 14.2458 12.4433 15.0857 12.953C15.4408 13.1684 16.1318 13.3247 16.3171 13.6923C15.881 13.8208 15.4997 14.158 15.1393 14.3786C14.2714 14.9097 13.3738 15.4167 12.4624 15.857C12.4624 14.3788 12.4624 12.9002 12.4624 11.4217Z" fill="#FFF6DC"/>
<path fill-rule="evenodd" clip-rule="evenodd" d="M13.212 0.122731C14.313 0.102369 15.5788 0.00116459 16.5312 0.228348C17.4422 0.445602 18.3845 0.579907 19.208 0.914614C22.7052 2.3368 25.3608 4.65287 26.8636 8.04267C27.3296 9.09363 27.6739 10.2438 27.9879 11.5276C28.0056 11.8266 28.0235 12.126 28.0414 12.4251C28.4927 14.4647 27.657 17.6054 27.0776 18.9194C25.4977 22.5027 22.7532 24.9176 19.0474 26.417C17.9956 26.8425 16.7962 26.88 15.5676 27.1561C15.0144 27.1561 14.461 27.1561 13.9079 27.1561C11.994 27.1563 10.4293 26.6769 9.08963 26.1001C5.10747 24.3862 2.62442 21.6557 1.21982 17.3882C0.798544 16.1078 0.367263 13.2909 0.791602 11.5802C1.00464 10.7219 1.11162 9.82112 1.43418 9.04589C2.95443 5.39049 5.40298 2.68504 9.03615 1.12595C9.84859 0.777301 10.7636 0.57118 11.6596 0.333966C12.0648 0.226543 12.906 0.312 13.212 0.122731ZM9.62504 8.57066C9.48253 8.65913 9.27276 8.61068 9.08963 8.67628C8.49197 8.89022 7.90461 9.33787 7.59062 9.83777C7.18833 10.4784 7.21599 11.4177 7.21599 12.4778C7.21599 14.4964 6.971 16.6446 7.85837 17.8106C8.857 19.1227 12.4863 18.7083 14.8181 18.7083C17.0228 18.7083 19.9647 19.071 20.9211 17.8106C21.5897 16.9295 21.5635 16.0376 21.5635 14.4843C21.5635 12.5259 21.7808 10.598 20.9211 9.46826C20.2217 8.5491 18.8299 8.57066 17.1736 8.57066C14.6577 8.57066 12.1411 8.57066 9.62504 8.57066ZM12.4624 11.4217C13.3856 11.8266 14.2458 12.4433 15.0857 12.953C15.4408 13.1684 16.1318 13.3247 16.3171 13.6923C15.881 13.8208 15.4997 14.158 15.1393 14.3786C14.2714 14.9097 13.3738 15.4167 12.4624 15.857C12.4624 14.3788 12.4624 12.9002 12.4624 11.4217Z" fill="#FFF6DC"/>
<path fill-rule="evenodd" clip-rule="evenodd" d="M13.212 0.122731C14.313 0.102369 15.5788 0.00116459 16.5312 0.228348C17.4422 0.445602 18.3845 0.579907 19.208 0.914614C22.7052 2.3368 25.3608 4.65287 26.8636 8.04267C27.3296 9.09363 27.6739 10.2438 27.9879 11.5276C28.0056 11.8266 28.0235 12.126 28.0414 12.4251C28.4927 14.4647 27.657 17.6054 27.0776 18.9194C25.4977 22.5027 22.7532 24.9176 19.0474 26.417C17.9956 26.8425 16.7962 26.88 15.5676 27.1561C15.0144 27.1561 14.461 27.1561 13.9079 27.1561C11.994 27.1563 10.4293 26.6769 9.08963 26.1001C5.10747 24.3862 2.62442 21.6557 1.21982 17.3882C0.798544 16.1078 0.367263 13.2909 0.791602 11.5802C1.00464 10.7219 1.11162 9.82112 1.43418 9.04589C2.95443 5.39049 5.40298 2.68504 9.03615 1.12595C9.84859 0.777301 10.7636 0.57118 11.6596 0.333966C12.0648 0.226543 12.906 0.312 13.212 0.122731ZM9.62504 8.57066C9.48253 8.65913 9.27276 8.61068 9.08963 8.67628C8.49197 8.89022 7.90461 9.33787 7.59062 9.83777C7.18833 10.4784 7.21599 11.4177 7.21599 12.4778C7.21599 14.4964 6.971 16.6446 7.85837 17.8106C8.857 19.1227 12.4863 18.7083 14.8181 18.7083C17.0228 18.7083 19.9647 19.071 20.9211 17.8106C21.5897 16.9295 21.5635 16.0376 21.5635 14.4843C21.5635 12.5259 21.7808 10.598 20.9211 9.46826C20.2217 8.5491 18.8299 8.57066 17.1736 8.57066C14.6577 8.57066 12.1411 8.57066 9.62504 8.57066ZM12.4624 11.4217C13.3856 11.8266 14.2458 12.4433 15.0857 12.953C15.4408 13.1684 16.1318 13.3247 16.3171 13.6923C15.881 13.8208 15.4997 14.158 15.1393 14.3786C14.2714 14.9097 13.3738 15.4167 12.4624 15.857C12.4624 14.3788 12.4624 12.9002 12.4624 11.4217Z" stroke="#7C5334"/>
<path fill-rule="evenodd" clip-rule="evenodd" d="M13.212 0.122731C14.313 0.102369 15.5788 0.00116459 16.5312 0.228348C17.4422 0.445602 18.3845 0.579907 19.208 0.914614C22.7052 2.3368 25.3608 4.65287 26.8636 8.04267C27.3296 9.09363 27.6739 10.2438 27.9879 11.5276C28.0056 11.8266 28.0235 12.126 28.0414 12.4251C28.4927 14.4647 27.657 17.6054 27.0776 18.9194C25.4977 22.5027 22.7532 24.9176 19.0474 26.417C17.9956 26.8425 16.7962 26.88 15.5676 27.1561C15.0144 27.1561 14.461 27.1561 13.9079 27.1561C11.994 27.1563 10.4293 26.6769 9.08963 26.1001C5.10747 24.3862 2.62442 21.6557 1.21982 17.3882C0.798544 16.1078 0.367263 13.2909 0.791602 11.5802C1.00464 10.7219 1.11162 9.82112 1.43418 9.04589C2.95443 5.39049 5.40298 2.68504 9.03615 1.12595C9.84859 0.777301 10.7636 0.57118 11.6596 0.333966C12.0648 0.226543 12.906 0.312 13.212 0.122731ZM9.62504 8.57066C9.48253 8.65913 9.27276 8.61068 9.08963 8.67628C8.49197 8.89022 7.90461 9.33787 7.59062 9.83777C7.18833 10.4784 7.21599 11.4177 7.21599 12.4778C7.21599 14.4964 6.971 16.6446 7.85837 17.8106C8.857 19.1227 12.4863 18.7083 14.8181 18.7083C17.0228 18.7083 19.9647 19.071 20.9211 17.8106C21.5897 16.9295 21.5635 16.0376 21.5635 14.4843C21.5635 12.5259 21.7808 10.598 20.9211 9.46826C20.2217 8.5491 18.8299 8.57066 17.1736 8.57066C14.6577 8.57066 12.1411 8.57066 9.62504 8.57066ZM12.4624 11.4217C13.3856 11.8266 14.2458 12.4433 15.0857 12.953C15.4408 13.1684 16.1318 13.3247 16.3171 13.6923C15.881 13.8208 15.4997 14.158 15.1393 14.3786C14.2714 14.9097 13.3738 15.4167 12.4624 15.857C12.4624 14.3788 12.4624 12.9002 12.4624 11.4217Z" stroke="#7C5334"/>
<path fill-rule="evenodd" clip-rule="evenodd" d="M13.212 0.122731C14.313 0.102369 15.5788 0.00116459 16.5312 0.228348C17.4422 0.445602 18.3845 0.579907 19.208 0.914614C22.7052 2.3368 25.3608 4.65287 26.8636 8.04267C27.3296 9.09363 27.6739 10.2438 27.9879 11.5276C28.0056 11.8266 28.0235 12.126 28.0414 12.4251C28.4927 14.4647 27.657 17.6054 27.0776 18.9194C25.4977 22.5027 22.7532 24.9176 19.0474 26.417C17.9956 26.8425 16.7962 26.88 15.5676 27.1561C15.0144 27.1561 14.461 27.1561 13.9079 27.1561C11.994 27.1563 10.4293 26.6769 9.08963 26.1001C5.10747 24.3862 2.62442 21.6557 1.21982 17.3882C0.798544 16.1078 0.367263 13.2909 0.791602 11.5802C1.00464 10.7219 1.11162 9.82112 1.43418 9.04589C2.95443 5.39049 5.40298 2.68504 9.03615 1.12595C9.84859 0.777301 10.7636 0.57118 11.6596 0.333966C12.0648 0.226543 12.906 0.312 13.212 0.122731ZM9.62504 8.57066C9.48253 8.65913 9.27276 8.61068 9.08963 8.67628C8.49197 8.89022 7.90461 9.33787 7.59062 9.83777C7.18833 10.4784 7.21599 11.4177 7.21599 12.4778C7.21599 14.4964 6.971 16.6446 7.85837 17.8106C8.857 19.1227 12.4863 18.7083 14.8181 18.7083C17.0228 18.7083 19.9647 19.071 20.9211 17.8106C21.5897 16.9295 21.5635 16.0376 21.5635 14.4843C21.5635 12.5259 21.7808 10.598 20.9211 9.46826C20.2217 8.5491 18.8299 8.57066 17.1736 8.57066C14.6577 8.57066 12.1411 8.57066 9.62504 8.57066ZM12.4624 11.4217C13.3856 11.8266 14.2458 12.4433 15.0857 12.953C15.4408 13.1684 16.1318 13.3247 16.3171 13.6923C15.881 13.8208 15.4997 14.158 15.1393 14.3786C14.2714 14.9097 13.3738 15.4167 12.4624 15.857C12.4624 14.3788 12.4624 12.9002 12.4624 11.4217Z" stroke="#7C5334"/>
</svg>
